<?xml version="1.0" standalone="no"?>
<!DOCTYPE svg PUBLIC "-//W3C//DTD SVG 20010904//EN"
 "http://www.w3.org/TR/2001/REC-SVG-20010904/DTD/svg10.dtd">
<svg version="1.0" xmlns="http://www.w3.org/2000/svg"
 width="260.000000pt" height="260.000000pt" viewBox="0 0 260.000000 260.000000"
 preserveAspectRatio="xMidYMid meet">
<metadata>
Created by potrace 1.14, written by Peter Selinger 2001-2017
</metadata>
<g transform="translate(0.000000,260.000000) scale(0.100000,-0.100000)"
fill="#000000" stroke="none">
<path d="M1560 2596 c0 -2 7 -7 16 -10 8 -3 12 -2 9 4 -6 10 -25 14 -25 6z"/>
<path d="M1640 2596 c0 -2 14 -14 30 -26 17 -12 30 -18 30 -13 0 5 -13 17 -30
26 -16 10 -30 16 -30 13z"/>
<path d="M1710 2580 c0 -5 5 -10 10 -10 6 0 10 5 10 10 0 6 -4 10 -10 10 -5 0
-10 -4 -10 -10z"/>
<path d="M1587 2559 c7 -7 15 -10 18 -7 3 3 -2 9 -12 12 -14 6 -15 5 -6 -5z"/>
<path d="M1620 2566 c0 -2 7 -6 15 -10 8 -3 15 -1 15 4 0 6 -7 10 -15 10 -8 0
-15 -2 -15 -4z"/>
<path d="M1540 2547 c0 -2 11 -13 25 -25 14 -12 25 -18 25 -13 0 5 -11 16 -25
25 -14 9 -25 15 -25 13z"/>
<path d="M1617 2543 c-4 -3 -7 -14 -7 -23 0 -9 -5 -21 -11 -27 -13 -13 -42 -6
-33 8 3 5 -2 6 -11 2 -11 -4 -13 -8 -5 -13 8 -5 7 -10 -4 -19 -10 -8 -16 -9
-21 -1 -3 5 -11 10 -18 10 -6 0 -1 -7 12 -16 19 -14 25 -14 32 -3 6 10 9 10 9
2 0 -7 -9 -17 -19 -23 -24 -12 -34 -13 -27 -1 3 5 0 11 -7 14 -7 3 -13 -3 -13
-13 0 -10 3 -17 6 -15 3 2 12 0 20 -6 12 -7 13 -9 1 -9 -8 0 -20 -8 -28 -17
-14 -17 -14 -17 -9 0 3 9 1 17 -4 17 -14 0 -12 -22 5 -44 14 -18 20 -12 16 16
0 4 8 12 19 18 11 6 18 16 14 21 -3 6 2 9 12 7 12 -2 18 2 16 10 -1 8 2 11 9
7 8 -5 7 -1 -1 15 -10 18 -9 21 2 18 23 -8 7 -68 -19 -68 -8 0 -12 -4 -9 -8 2
-4 1 -14 -5 -22 -6 -10 -9 -11 -9 -2 0 20 -16 13 -17 -8 -1 -11 2 -18 8 -15 5
4 9 1 9 -5 0 -6 -6 -10 -12 -9 -34 4 -49 -2 -46 -18 2 -10 9 -18 16 -18 6 0
11 -3 10 -6 -5 -11 24 -39 35 -32 6 4 7 1 3 -6 -6 -9 -13 -8 -27 5 -10 9 -19
12 -19 6 0 -6 5 -14 10 -17 13 -8 13 -25 0 -25 -5 0 -9 5 -7 11 1 6 -6 13 -16
14 -17 3 -17 2 -3 -14 9 -10 16 -28 16 -40 0 -12 4 -20 9 -17 5 3 15 -2 22
-12 13 -15 12 -16 -3 -4 -10 8 -18 9 -22 3 -4 -6 -13 -8 -21 -4 -21 7 -19 -13
4 -36 18 -18 18 -19 -5 -30 -13 -6 -24 -16 -24 -23 0 -9 -3 -8 -10 2 -6 9 -10
10 -10 3 0 -6 9 -18 21 -26 22 -16 15 -26 -13 -22 -11 2 -15 -2 -11 -11 3 -8
9 -14 15 -14 5 0 6 5 2 12 -4 6 -3 8 3 5 15 -9 23 -46 12 -53 -5 -3 -9 -10 -9
-17 0 -8 3 -8 12 1 7 7 17 12 22 12 6 0 1 -7 -11 -15 -26 -18 -24 -51 3 -48
11 1 13 0 7 -3 -7 -3 -13 -12 -13 -20 0 -8 -5 -14 -10 -14 -6 0 -9 3 -9 8 3
19 -2 29 -17 29 -14 0 -14 -2 2 -14 10 -7 13 -13 7 -13 -6 0 -10 -11 -10 -25
0 -14 4 -25 9 -25 5 0 6 4 3 10 -3 6 1 7 10 3 12 -4 13 -8 5 -13 -13 -8 -10
-41 5 -52 6 -5 6 -8 -1 -8 -7 0 -11 -14 -9 -35 1 -20 -2 -38 -7 -41 -4 -3 -6
-10 -3 -15 4 -5 1 -9 -4 -9 -12 0 -14 13 -4 24 10 9 13 36 4 36 -4 0 -7 9 -8
20 -1 11 2 20 6 20 4 0 8 7 8 15 0 8 -5 11 -10 8 -6 -4 -8 0 -5 9 4 8 0 15 -7
15 -10 0 -11 -5 -4 -19 7 -12 6 -25 -2 -40 -9 -16 -9 -23 0 -26 18 -6 13 -40
-9 -62 -11 -11 -16 -20 -12 -20 4 0 13 5 20 12 16 16 16 -4 0 -21 -11 -11 -10
-12 0 -7 9 6 11 1 8 -16 -4 -26 26 -72 40 -60 5 4 2 -1 -6 -11 -8 -11 -21 -16
-32 -14 -10 3 -16 1 -12 -4 3 -5 12 -9 20 -9 17 0 14 -21 -6 -37 -13 -11 -13
-12 3 -7 12 4 17 1 17 -11 0 -9 -4 -13 -10 -10 -5 3 -10 1 -10 -5 0 -6 11 -8
26 -6 21 4 24 3 14 -10 -10 -11 -10 -14 0 -14 8 0 10 -3 7 -6 -4 -4 -14 -1
-22 6 -13 11 -18 11 -28 0 -9 -10 -9 -11 0 -6 7 4 21 -2 33 -14 11 -11 16 -20
11 -20 -6 0 -8 -9 -6 -20 3 -13 0 -18 -7 -14 -8 5 -9 1 -4 -12 5 -10 10 -35
12 -54 2 -28 1 -31 -7 -17 -6 9 -14 15 -20 12 -5 -4 -9 -1 -9 5 0 7 6 10 13 7
8 -3 14 1 14 8 0 11 -5 11 -28 -1 -15 -7 -31 -20 -35 -26 -6 -10 -5 -10 7 -1
11 9 20 6 42 -13 30 -26 28 -31 -5 -13 -16 9 -23 8 -34 -5 -8 -9 -9 -11 -2 -6
17 14 32 12 20 -3 -6 -7 -7 -18 -3 -26 6 -9 11 -10 15 -2 4 6 2 11 -5 11 -10
0 -10 3 -2 11 7 7 17 8 28 2 15 -9 16 -11 1 -16 -8 -3 -13 -13 -10 -21 3 -8 0
-17 -7 -22 -8 -5 -10 -3 -4 6 5 8 4 11 -3 6 -6 -3 -15 2 -21 11 -6 10 -11 13
-11 7 0 -6 9 -19 19 -28 19 -17 18 -52 0 -40 -5 3 -7 10 -4 15 3 5 -1 6 -10 3
-14 -6 -13 -8 4 -20 23 -17 24 -51 2 -79 -15 -18 -15 -19 2 -6 17 13 18 12 13
-14 -3 -16 -10 -33 -17 -39 -8 -8 -10 -5 -5 14 6 21 5 22 -4 7 -12 -19 -4 -41
11 -32 5 4 9 -1 9 -10 0 -9 -4 -14 -8 -11 -11 7 -25 -5 -45 -39 -17 -28 -16
-27 12 5 27 31 37 31 32 -2 -2 -13 17 -9 22 5 2 6 8 8 13 4 5 -5 1 -13 -9 -19
-15 -8 -16 -12 -5 -26 11 -13 11 -14 -2 -7 -26 16 -42 15 -35 -3 5 -13 3 -14
-6 -5 -12 12 -3 37 11 28 5 -3 8 4 7 15 -2 25 -1 25 -21 -5 -14 -21 -14 -29
-5 -48 11 -19 10 -20 -3 -10 -8 7 -19 9 -23 5 -5 -4 -5 1 -2 11 4 11 3 16 -3
12 -6 -4 -8 -17 -6 -30 6 -31 -4 -39 -21 -17 -8 9 -12 11 -8 4 4 -7 1 -21 -7
-30 -12 -16 -11 -16 6 -2 17 13 19 13 13 0 -4 -8 -10 -23 -13 -32 -4 -10 -11
-18 -16 -18 -5 0 -8 -8 -6 -17 2 -11 -2 -17 -11 -15 -11 2 -12 0 -3 -11 7 -8
10 -16 7 -19 -3 -2 2 -5 10 -5 11 0 12 4 4 13 -7 8 -7 14 1 19 6 3 7 11 4 17
-5 7 -2 8 6 3 9 -5 11 -4 6 3 -4 7 -2 12 4 12 6 0 9 4 5 9 -3 5 2 17 11 25 8
9 12 16 7 16 -4 0 1 7 11 15 11 8 14 15 7 15 -7 0 -9 4 -6 10 4 6 11 5 20 -3
11 -10 9 -14 -9 -24 -11 -7 -17 -12 -12 -13 5 0 2 -8 -6 -17 -9 -11 -14 -31
-12 -48 2 -21 0 -25 -6 -15 -8 12 -10 12 -16 -4 -4 -11 -2 -21 7 -27 11 -7 11
-9 1 -9 -7 0 -11 -4 -8 -9 8 -12 -37 -1 -45 11 -3 6 -9 2 -12 -7 -4 -9 -3 -13
3 -10 6 3 10 1 10 -5 0 -6 5 -8 10 -5 6 3 10 1 10 -5 0 -6 4 -9 8 -6 5 3 9 -1
9 -9 0 -8 -4 -12 -9 -9 -8 5 -12 -9 -9 -33 1 -7 -2 -13 -7 -13 -4 0 -8 11 -8
25 0 14 4 25 10 25 5 0 7 3 4 6 -4 3 -15 1 -26 -5 -15 -8 -21 -8 -24 1 -3 7
-7 4 -12 -7 -4 -11 -4 -16 0 -13 4 4 15 3 24 -2 16 -8 17 -14 7 -40 -6 -16
-15 -30 -20 -30 -4 0 -3 9 3 20 7 14 7 20 0 20 -5 0 -10 -7 -10 -15 0 -8 -6
-15 -12 -16 -7 0 -3 -5 10 -11 12 -6 22 -15 22 -20 0 -11 -23 -6 -32 7 -5 6
-12 5 -20 -4 -10 -10 -10 -12 0 -7 6 4 12 2 12 -3 0 -16 45 -6 46 10 1 8 3 19
4 24 1 6 2 12 2 15 0 3 8 6 19 6 16 0 17 -3 7 -11 -7 -5 -14 -18 -16 -27 -2
-13 2 -16 15 -12 15 5 15 4 3 -4 -8 -6 -17 -9 -21 -6 -4 2 -9 -2 -12 -9 -6
-15 -34 -16 -57 -2 -13 8 -13 7 -1 -8 12 -15 11 -21 -10 -43 -15 -16 -18 -23
-8 -19 9 3 22 17 29 31 7 13 17 24 22 24 14 0 -21 -59 -42 -70 -16 -9 -18 -15
-10 -30 8 -15 6 -21 -9 -29 -10 -6 -21 -7 -25 -3 -4 3 -4 -1 -1 -11 6 -15 9
-15 22 -2 8 8 23 20 34 25 15 9 17 15 9 29 -7 14 -5 22 7 32 14 12 15 11 9 -8
-5 -16 -2 -25 14 -33 11 -6 20 -16 20 -23 0 -8 -3 -8 -9 1 -7 11 -16 9 -45
-10 -19 -12 -36 -28 -36 -33 0 -6 -9 -11 -19 -12 -11 -1 -19 4 -17 10 1 7 1 9
-1 5 -3 -5 -13 -3 -23 2 -14 7 -18 6 -16 -5 1 -8 6 -18 11 -22 4 -4 5 -2 1 5
-4 6 -3 12 2 12 22 0 19 -16 -9 -52 -17 -21 -29 -42 -25 -45 3 -4 6 0 6 8 0
12 2 11 11 -1 9 -13 10 -12 5 2 -3 10 -1 20 4 23 10 6 14 -7 11 -35 -1 -9 1
-11 6 -5 4 6 15 10 23 10 8 0 14 6 12 13 -1 6 5 12 13 12 13 0 14 -4 5 -20 -6
-11 -16 -20 -22 -20 -6 0 -8 -3 -5 -6 4 -4 13 -2 20 4 8 7 17 9 20 5 4 -3 7
-1 7 5 0 7 4 12 10 12 5 0 7 -7 4 -15 -4 -8 -1 -15 6 -15 6 0 8 5 4 11 -4 7
-1 10 7 7 8 -3 13 -11 11 -17 -1 -7 2 -10 8 -6 8 5 7 11 -1 21 -6 8 -9 17 -5
21 3 4 13 -2 21 -13 15 -19 15 -19 8 0 -5 14 -3 17 7 11 8 -5 11 -4 7 3 -4 5
-18 9 -32 8 -14 -2 -22 1 -18 7 3 6 1 7 -6 3 -6 -4 -9 -11 -7 -15 3 -3 -4 -7
-15 -7 -19 0 -20 1 -2 14 17 14 17 14 0 8 -11 -3 -16 -2 -12 5 4 6 14 8 24 4
12 -5 13 -3 4 6 -6 6 -17 8 -25 3 -16 -10 -78 -13 -78 -4 0 15 14 19 33 9 13
-8 17 -8 13 -1 -4 7 1 9 14 7 11 -2 18 -1 16 3 -2 4 4 8 14 8 10 0 17 -3 14
-7 -8 -13 24 -30 60 -31 23 -1 36 -6 36 -15 0 -7 5 -13 10 -13 7 0 7 7 0 21
-7 11 -18 18 -25 15 -8 -3 -17 -1 -20 4 -4 6 2 11 12 11 10 1 24 2 32 3 8 0
15 11 16 23 2 33 11 37 31 15 14 -15 24 -17 39 -11 19 9 19 9 -2 5 -12 -2 -24
2 -26 8 -4 9 6 13 29 13 21 0 31 -4 27 -11 -4 -6 0 -5 9 2 11 9 18 10 23 2 3
-5 1 -10 -6 -10 -7 0 -9 -3 -6 -7 4 -3 15 2 26 11 11 10 22 13 25 8 3 -6 1
-13 -4 -15 -6 -3 -5 -4 2 -2 7 1 12 8 10 14 -1 6 2 11 8 11 5 0 8 6 6 13 -1 6
-1 9 1 4 3 -4 8 -5 12 -3 4 3 8 -5 8 -17 2 -18 0 -19 -8 -7 -9 12 -10 12 -5
-3 3 -10 6 -21 6 -23 0 -3 13 9 29 25 25 25 29 27 28 11 -1 -10 -4 -17 -8 -14
-4 2 -13 -4 -20 -14 -11 -14 -11 -15 1 -5 10 10 16 9 25 -4 10 -13 14 -13 20
-3 6 9 4 11 -5 5 -10 -6 -12 -4 -7 9 4 10 7 22 7 27 0 5 5 9 11 9 5 0 7 -4 4
-10 -3 -5 -1 -18 5 -27 9 -15 11 -15 7 -2 -4 13 -1 15 15 11 15 -4 17 -7 6
-13 -9 -6 -9 -9 -1 -9 6 0 15 5 18 10 5 8 11 7 21 -1 11 -9 18 -9 26 -1 7 7
19 12 28 12 13 -1 12 -3 -2 -14 -22 -16 -23 -23 -3 -23 8 0 12 4 10 8 -3 3 2
12 9 18 11 10 17 8 25 -6 6 -11 11 -13 11 -5 0 8 5 10 13 6 8 -5 8 -3 -2 9 -7
9 -18 14 -25 10 -6 -3 -8 -3 -4 2 4 4 3 14 -3 22 -9 9 -8 13 0 13 6 0 11 -5
11 -11 0 -8 6 -7 18 2 15 13 16 12 3 -4 -8 -10 -9 -17 -3 -17 6 0 16 8 22 17
10 16 11 16 6 1 -3 -9 -2 -19 2 -21 4 -2 2 -2 -5 -1 -7 2 -10 -3 -6 -11 3 -8
9 -13 13 -10 5 3 13 -2 18 -10 7 -14 10 -14 21 -2 9 12 9 17 0 23 -8 5 -9 3
-4 -6 5 -8 3 -11 -5 -8 -16 5 -24 48 -9 48 5 0 7 -5 3 -12 -5 -8 -2 -9 9 -5
10 3 17 3 17 -1 0 -4 10 -18 21 -32 18 -23 19 -23 9 -2 -6 13 -7 22 -1 22 5 0
11 -5 13 -12 3 -8 7 -6 10 4 5 12 1 15 -16 14 -12 -2 -23 2 -23 9 0 12 25 14
44 2 7 -4 10 -14 6 -22 -6 -18 13 -20 23 -3 5 7 3 8 -6 3 -9 -5 -11 -4 -6 4 4
6 2 20 -6 29 -12 15 -11 16 4 4 13 -10 17 -10 22 0 3 7 3 3 1 -9 -3 -12 0 -25
6 -29 7 -4 9 -3 6 4 -5 6 1 8 15 5 19 -4 21 -3 8 7 -13 10 -13 11 3 6 9 -3 17
0 17 6 0 6 9 -1 21 -16 19 -24 23 -25 33 -11 10 14 12 13 23 -4 10 -16 9 -22
-4 -33 -14 -11 -16 -11 -8 1 6 10 4 12 -5 6 -8 -5 -11 -4 -6 3 4 7 -1 10 -14
7 -13 -3 -18 0 -14 7 5 7 2 8 -6 3 -8 -5 -11 -4 -6 3 3 6 -1 9 -11 7 -10 -2
-22 -4 -26 -4 -5 -1 -5 -6 -1 -12 4 -8 9 -7 15 2 6 11 9 10 15 -4 4 -10 13
-16 20 -13 7 3 23 -7 34 -21 17 -22 23 -24 33 -13 9 10 9 11 -1 6 -10 -6 -10
-2 0 18 14 31 18 32 46 6 26 -25 36 -26 27 -2 -4 12 -3 14 5 6 6 -6 8 -18 4
-28 -6 -15 -10 -14 -35 10 -16 15 -29 23 -29 17 0 -5 9 -18 20 -28 20 -18 28
-41 11 -30 -5 3 -16 -2 -25 -10 -8 -8 -17 -11 -20 -6 -4 5 -1 11 6 13 9 3 9 6
0 12 -7 4 -12 2 -12 -4 0 -6 -6 -8 -12 -4 -7 4 -4 -2 6 -14 18 -21 20 -21 39
-5 19 17 19 17 13 -7 -6 -24 -6 -24 9 3 13 22 19 25 34 18 12 -7 22 -6 30 2
10 9 11 8 6 -5 -4 -11 -2 -18 5 -18 6 0 8 5 5 10 -3 6 -2 10 4 10 5 0 11 -3
14 -7 2 -5 3 -3 1 3 -1 6 2 17 6 24 5 8 4 22 -2 33 -8 17 -7 18 14 13 12 -3
17 -3 10 0 -6 3 -10 9 -7 13 2 5 -7 7 -21 5 -18 -2 -24 2 -20 11 3 9 0 12 -9
9 -10 -4 -13 0 -10 16 4 19 2 20 -12 8 -14 -11 -16 -11 -11 3 5 13 2 16 -12
12 -17 -5 -16 -8 11 -31 23 -19 27 -27 17 -33 -11 -7 -11 -9 0 -9 7 0 10 -5 6
-11 -10 -16 -24 10 -16 30 5 13 3 14 -10 4 -8 -7 -18 -10 -21 -6 -4 3 -7 1 -7
-7 0 -10 -3 -10 -14 0 -8 6 -13 17 -10 24 2 6 -4 12 -16 13 -22 2 -27 -12 -7
-20 9 -4 9 -6 0 -6 -21 -2 -25 20 -8 39 15 16 15 22 5 35 -7 8 -17 12 -23 8
-6 -3 -7 -1 -3 6 6 9 11 9 21 1 11 -9 14 -6 12 16 -1 15 -8 29 -15 32 -7 2
-10 -2 -6 -12 3 -9 2 -16 -4 -16 -5 0 -9 10 -8 23 1 15 -4 21 -14 19 -8 -2
-11 0 -7 5 5 4 14 8 20 8 18 0 19 23 0 28 -17 4 -17 5 0 6 16 1 16 3 2 31 -19
37 -19 40 5 40 11 0 20 5 20 11 0 5 -5 7 -10 4 -15 -10 -42 16 -35 33 3 9 0
12 -9 9 -14 -6 -17 16 -4 29 10 9 30 -35 22 -48 -5 -7 -3 -8 6 -3 9 6 11 4 5
-6 -6 -11 -5 -12 6 -2 10 10 10 16 1 25 -18 18 -14 32 5 17 15 -13 15 -12 2 9
-8 12 -15 18 -17 12 -2 -6 -8 -8 -13 -4 -5 3 -5 14 2 26 6 12 7 18 1 14 -5 -3
-13 1 -16 10 -9 24 -7 28 8 15 11 -9 16 -9 22 1 4 7 4 10 -1 6 -4 -4 -14 -3
-22 3 -7 6 -14 8 -15 3 -4 -27 -3 -40 6 -46 6 -4 7 -11 2 -15 -5 -4 -11 -2
-13 5 -3 6 -9 10 -13 7 -5 -3 -7 7 -4 22 3 15 2 24 -2 21 -4 -4 -16 -2 -27 3
-15 8 -16 13 -7 19 7 4 9 13 5 19 -5 9 -11 7 -21 -6 -7 -10 -14 -13 -14 -6 0
6 5 15 11 18 7 5 6 12 -4 23 -8 10 -13 27 -12 40 1 13 -2 25 -7 28 -4 3 -8 0
-8 -5 0 -6 -5 -11 -12 -11 -9 0 -9 3 0 12 16 16 44 20 35 5 -3 -7 -3 -9 2 -5
4 4 13 4 19 -2 7 -5 17 -5 26 2 12 8 12 9 -3 4 -11 -3 -20 0 -24 10 -3 8 -12
13 -19 10 -16 -6 -19 10 -4 19 6 4 8 11 5 16 -4 5 -1 9 4 9 6 0 11 4 11 9 0 5
-8 8 -17 7 -11 -2 -18 -12 -18 -24 0 -27 -30 -59 -40 -43 -3 7 -1 10 6 9 15
-3 20 41 7 58 -9 12 20 50 30 39 3 -3 -3 -11 -13 -19 -11 -8 -14 -15 -8 -19 6
-4 14 0 17 9 3 8 10 12 16 9 6 -3 7 1 4 9 -6 15 6 21 29 17 5 -1 6 3 2 9 -3 6
-10 8 -15 5 -12 -7 -41 6 -35 16 3 4 13 6 23 3 15 -5 15 -4 -1 6 -9 6 -15 15
-12 20 3 5 -4 12 -16 15 -15 5 -18 10 -10 18 18 18 13 28 -13 23 -19 -3 -23
-1 -19 11 4 11 2 14 -5 9 -13 -8 -35 27 -24 39 4 5 -2 5 -13 1 -15 -6 -17 -4
-8 5 13 13 6 42 -9 33 -5 -3 -2 8 7 25 15 30 15 32 -1 29 -26 -5 -29 21 -3 30
19 7 20 10 6 15 -22 8 -22 29 -1 25 10 -2 19 3 22 11 3 8 0 11 -7 7 -7 -5 -9
-1 -5 9 4 11 2 14 -9 9 -8 -3 -18 -1 -22 5 -4 7 0 8 11 4 13 -5 15 -3 9 8 -6
11 -5 12 6 2 23 -22 33 -14 13 10 -19 22 -19 22 2 5 29 -25 41 -22 18 3 -10
11 -14 19 -9 18 6 -2 20 2 33 9 12 7 22 9 22 5 0 -4 5 0 11 10 6 10 8 21 5 24
-3 4 -6 1 -6 -5 0 -19 -18 -14 -30 8 -6 12 -7 20 -1 20 5 0 11 -7 13 -16 2
-13 6 -12 23 7 19 21 19 22 1 15 -16 -5 -17 -4 -6 9 7 8 10 22 6 30 -3 9 -2
13 4 10 6 -3 10 -15 10 -26 0 -10 5 -19 10 -19 6 0 10 7 8 16 -2 12 5 18 21
19 23 2 23 1 5 -13 -16 -12 -16 -14 -2 -9 10 3 20 2 23 -3 4 -6 16 -10 28 -9
22 1 22 1 -1 7 -13 4 -23 12 -24 17 -1 22 -11 35 -20 29 -18 -11 -28 19 -10
32 14 10 15 14 2 30 -13 16 -13 17 0 9 21 -13 71 -13 67 0 -3 5 -14 9 -26 8
-11 -2 -21 1 -21 5 0 11 39 12 45 1 4 -5 11 -9 17 -9 6 0 3 9 -7 20 -21 23
-11 28 11 6 8 -8 13 -20 12 -27 -2 -6 2 -13 9 -16 7 -3 10 5 9 21 -2 13 0 30
4 37 9 13 30 4 30 -14 0 -8 -3 -8 -9 2 -6 9 -11 10 -15 2 -4 -6 -2 -11 5 -11
8 0 9 -3 0 -13 -6 -8 -8 -17 -4 -21 4 -4 1 -11 -7 -16 -10 -6 -11 -10 -3 -10
12 0 39 40 34 50 -1 2 3 6 10 9 7 2 9 -1 5 -8 -4 -6 -2 -11 4 -11 7 0 10 6 7
13 -7 19 12 49 26 40 7 -4 7 0 -2 10 -16 20 -1 23 18 5 10 -11 12 -10 9 2 -2
8 3 14 10 12 8 -1 11 2 7 8 -5 8 -11 8 -19 1 -9 -7 -16 -7 -24 1 -9 9 -12 9
-12 -2 0 -12 -2 -13 -9 -1 -6 9 -11 10 -15 2 -4 -6 -3 -11 2 -11 5 0 9 -7 9
-15 0 -8 -4 -12 -9 -9 -4 3 -5 -3 -2 -13 5 -14 4 -15 -4 -4 -6 8 -7 21 -4 30
5 14 4 14 -14 1 -18 -14 -18 -14 -5 3 8 9 11 20 8 23 -3 3 -17 -12 -31 -33
-14 -20 -26 -33 -26 -28 0 12 29 57 43 66 5 3 19 5 33 3 13 -1 24 2 24 8 0 7
4 7 13 0 9 -8 17 -8 27 0 13 8 13 9 -1 5 -8 -3 -25 6 -38 19 -18 19 -27 22
-37 13 -17 -14 -18 -5 -4 21 8 16 8 18 -5 14 -8 -3 -13 -10 -10 -14 3 -5 1
-11 -5 -15 -5 -3 -10 -1 -10 6 0 10 -3 10 -11 2 -8 -8 -8 -16 1 -30 9 -15 11
-15 6 -1 -3 12 -1 15 10 11 27 -10 12 -30 -20 -24 -4 1 -14 -3 -21 -9 -9 -8
-14 -7 -18 2 -7 21 -7 28 1 27 4 -1 6 -5 5 -10 -4 -12 14 -11 22 1 3 6 1 10
-5 10 -8 0 -8 6 0 21 7 11 9 23 6 27 -3 3 -6 0 -6 -7 0 -7 -5 -9 -10 -6 -6 4
-7 11 -4 17 5 7 2 8 -5 3 -9 -5 -10 -10 -2 -18 6 -6 11 -15 11 -19 0 -13 -25
-4 -32 12 -5 12 -7 11 -7 -3 -1 -10 -5 -16 -11 -12 -10 6 -37 -19 -56 -50 -9
-17 -11 -17 -11 -2 0 9 5 17 10 17 5 0 6 7 3 16 -4 10 -2 13 7 8 6 -4 3 2 -8
12 -17 18 -21 18 -36 4 -16 -15 -15 -30 2 -30 6 0 8 4 4 9 -3 5 0 13 6 16 7 5
10 0 7 -11 -2 -11 -12 -19 -25 -20 -13 -1 -20 2 -18 7 3 4 1 10 -4 14 -6 3 -8
12 -4 20 6 18 -13 20 -23 3 -4 -6 -3 -9 2 -6 5 4 10 -5 11 -19 l1 -25 -17 28
c-10 16 -14 31 -9 32 4 2 8 9 8 15 0 7 -4 7 -12 -1 -7 -7 -13 -17 -13 -22 0
-6 -4 -10 -10 -9 -5 0 -9 10 -7 21 2 16 -1 18 -11 10 -23 -20 -66 -3 -66 26 1
46 -22 78 -46 65 -5 -4 -7 -2 -2 2 12 14 47 16 44 3 -1 -7 3 -12 8 -13 6 0 17
-4 25 -9 8 -5 5 2 -7 15 -16 18 -20 28 -12 36 8 8 7 13 -2 18 -8 5 -10 4 -5
-3 4 -7 3 -12 -3 -12 -5 0 -17 -3 -26 -7 -14 -5 -12 0 5 20 19 22 26 25 39 14
14 -10 14 -10 3 5 -8 9 -10 23 -6 30 4 7 -3 3 -15 -9 -12 -13 -25 -23 -28 -23
-4 0 -3 3 0 7 4 3 -1 12 -11 20 -15 13 -15 13 5 3 19 -9 22 -8 16 6 -5 13 -3
15 7 9 8 -5 11 -4 7 1 -8 14 -63 9 -59 -5 1 -7 -2 -10 -8 -6 -15 9 9 37 27 31
21 -8 41 4 38 22 -1 9 4 24 12 34 24 27 -6 34 -31 7 -20 -22 -20 -22 0 -6 29
24 41 21 19 -3 -10 -12 -26 -18 -34 -15 -12 4 -12 2 2 -9 19 -15 24 -31 5 -19
-7 4 -22 7 -33 5 l-20 -2 20 9 c11 5 16 10 11 10 -5 1 -3 8 4 16 6 8 9 19 6
24 -4 5 -1 13 5 17 8 5 10 3 4 -7 -4 -8 0 -6 11 4 18 17 18 18 -3 39 l-22 21
3 -26 c2 -15 0 -24 -5 -22 -4 3 -9 1 -11 -5 -2 -6 -8 -6 -18 0 -13 8 -12 10 3
10 20 0 22 11 5 29 -11 10 -9 15 5 26 18 13 18 14 0 25 -15 10 -16 11 -1 6 10
-3 20 -1 23 4 6 10 -7 14 -35 11 -13 -2 -13 0 -1 8 8 5 21 7 29 3 11 -4 13 -2
6 9 -18 29 -14 58 12 86 22 23 26 25 22 8 -2 -11 -10 -19 -16 -18 -7 2 -12 -2
-12 -7 0 -5 5 -10 11 -10 6 0 8 -7 5 -17 -4 -10 -4 -14 0 -11 4 4 16 2 28 -4
11 -6 18 -7 14 -3 -4 5 -2 15 5 24 11 14 10 14 -6 2 -21 -16 -35 -8 -19 12 8
10 8 20 -2 39 -11 20 -11 29 -2 39 9 11 8 11 -5 1 -9 -6 -18 -10 -21 -7 -2 3
-5 -2 -5 -10 0 -8 4 -12 9 -9 4 3 8 3 8 0 0 -3 -9 -10 -21 -16 -18 -10 -19 -9
-11 7 10 18 12 25 12 44 0 5 4 8 9 5 4 -3 16 0 26 8 15 11 16 13 1 13 -9 0
-16 -3 -16 -7 0 -4 -7 -7 -15 -7 -10 0 -13 6 -9 19 3 10 1 18 -5 18 -6 0 -10
6 -8 13 1 7 -7 11 -19 10 -12 -1 -21 4 -21 12 0 11 8 13 31 9 17 -3 28 -2 25
1 -4 3 -17 8 -29 10 -13 3 -28 9 -34 15 -13 13 -26 13 -26 -1 0 -5 4 -8 9 -4
5 3 12 1 15 -4 3 -5 -1 -12 -10 -15 -21 -8 -22 -8 -27 7 -2 6 -3 4 -1 -6 1
-10 -3 -16 -9 -14 -7 2 -11 14 -10 26 3 22 1 25 -10 14z m69 -42 c-3 -5 1 -14
9 -21 10 -9 15 -9 15 -1 0 6 5 11 10 11 6 0 9 -3 9 -7 -1 -5 0 -10 1 -13 6
-16 6 -52 -1 -56 -5 -2 -7 -10 -5 -17 1 -7 1 -9 -1 -5 -2 4 -12 4 -21 1 -13
-4 -14 -3 -3 5 7 5 9 12 5 14 -5 3 -4 3 3 2 7 -2 15 1 18 6 6 10 -7 14 -32 11
-6 -1 -14 3 -18 9 -9 14 -23 13 -28 -2 -2 -7 -3 -5 -2 5 4 21 -8 22 -25 2 -9
-10 -9 -15 -1 -15 6 0 11 -5 11 -11 0 -8 -5 -8 -15 1 -12 10 -16 8 -24 -11 -6
-16 -10 -18 -10 -8 -1 9 6 22 14 29 13 11 13 15 3 21 -10 7 -10 9 2 10 8 1 19
1 23 0 5 -1 6 3 2 9 -4 6 1 7 12 4 15 -5 15 -4 3 5 -9 6 -18 7 -24 1 -16 -16
-29 -11 -16 5 7 9 20 13 29 10 9 -2 23 0 31 5 19 12 33 13 26 1z m-12 -103
c-4 -5 -9 -7 -12 -4 -3 3 -12 0 -21 -7 -14 -10 -14 -10 -4 4 13 16 46 23 37 7z
m-84 -25 c0 -3 -7 -3 -15 1 -8 3 -15 0 -15 -6 0 -6 -3 -9 -6 -5 -11 10 6 26
21 20 8 -3 15 -7 15 -10z m130 -9 c0 -8 -19 -13 -24 -6 -3 5 1 9 9 9 8 0 15
-2 15 -3z m-205 -43 c3 -6 -4 -9 -15 -8 -11 1 -20 5 -20 9 0 11 28 10 35 -1z
m35 -1 c0 -5 -4 -10 -10 -10 -5 0 -10 5 -10 10 0 6 5 10 10 10 6 0 10 -4 10
-10z m138 -25 c-3 -3 -9 2 -12 12 -6 14 -5 15 5 6 7 -7 10 -15 7 -18z m-98 9
c0 -8 -19 -13 -24 -6 -3 5 1 9 9 9 8 0 15 -2 15 -3z m-49 -77 c-10 -9 -11 -8
-5 6 3 10 9 15 12 12 3 -3 0 -11 -7 -18z m133 15 c3 -5 -1 -9 -9 -9 -8 0 -12
4 -9 9 3 4 7 8 9 8 2 0 6 -4 9 -8z m31 -22 c4 -6 1 -9 -7 -8 -8 2 -12 -4 -10
-14 2 -10 -1 -18 -7 -18 -10 0 -9 19 2 38 10 15 14 15 22 2z m-176 -23 c0 -9
-2 -8 -6 1 -2 6 -10 9 -15 6 -7 -4 -8 -2 -4 5 9 13 26 5 25 -12z m45 5 c2 -4
-4 -8 -14 -8 -10 0 -16 4 -14 8 3 4 9 8 14 8 5 0 11 -4 14 -8z m196 -53 c0 -6
-4 -7 -10 -4 -5 3 -10 11 -10 16 0 6 5 7 10 4 6 -3 10 -11 10 -16z m-263 -6
c0 -7 -4 -13 -7 -13 -4 0 -12 6 -18 13 -8 10 -6 13 7 13 10 0 18 -6 18 -13z
m215 -45 c-7 -7 -12 -8 -12 -2 0 6 3 14 7 17 3 4 9 5 12 2 2 -3 -1 -11 -7 -17z
m-234 -21 c9 3 14 3 11 -1 -4 -4 -16 -8 -27 -11 -16 -3 -19 0 -15 13 4 9 8 11
10 5 3 -7 12 -9 21 -6z m257 -86 c3 -5 2 -12 -3 -15 -5 -3 -9 1 -9 9 0 17 3
19 12 6z m-255 -55 c0 -3 -4 -8 -10 -11 -5 -3 -10 -1 -10 4 0 6 5 11 10 11 6
0 10 -2 10 -4z m-3 -82 c-3 -3 -12 -4 -19 -1 -8 3 -5 6 6 6 11 1 17 -2 13 -5z
m-10 -56 c-3 -8 -6 -5 -6 6 -1 11 2 17 5 13 3 -3 4 -12 1 -19z m373 -18 c0 -5
-5 -10 -11 -10 -5 0 -7 5 -4 10 3 6 8 10 11 10 2 0 4 -4 4 -10z m53 -14 c6
-15 -17 -16 -30 -1 -4 4 -2 5 5 1 6 -4 12 -2 12 3 0 15 7 14 13 -3z m170 -2
c-2 -6 0 -15 6 -19 6 -3 11 -11 11 -18 0 -6 -6 -3 -13 7 -12 16 -17 17 -38 7
-23 -11 -23 -11 -5 3 14 12 16 16 5 16 -11 0 -11 2 -1 8 19 13 41 10 35 -4z
m135 -15 c-16 -10 -33 5 -23 21 5 8 11 8 21 -1 12 -10 12 -14 2 -20z m-138
-23 c0 -2 -7 -7 -16 -10 -8 -3 -12 -2 -9 4 6 10 25 14 25 6z m65 -6 c-3 -5
-11 -10 -16 -10 -6 0 -7 5 -4 10 3 6 11 10 16 10 6 0 7 -4 4 -10z m-27 -35
c-3 -3 -9 2 -12 12 -6 14 -5 15 5 6 7 -7 10 -15 7 -18z m-618 1 c0 -2 -7 -6
-15 -10 -8 -3 -15 -1 -15 4 0 6 7 10 15 10 8 0 15 -2 15 -4z m-29 -35 c-12 -8
-13 -12 -1 -25 7 -9 10 -19 7 -23 -4 -3 -2 -12 4 -19 7 -9 6 -12 -5 -10 -9 1
-19 5 -23 9 -11 11 -13 38 -2 31 5 -3 9 -1 9 5 0 5 -5 13 -11 17 -12 7 6 24
26 24 6 0 4 -4 -4 -9z m26 -16 c0 -8 -4 -12 -9 -9 -5 3 -6 10 -3 15 9 13 12
11 12 -6z m521 -49 c-7 -8 -15 -12 -17 -11 -5 6 10 25 20 25 5 0 4 -6 -3 -14z
m-535 -66 c-6 -21 -25 -28 -20 -7 2 10 16 26 24 27 0 0 -1 -9 -4 -20z m491 -2
c-2 -4 -14 -5 -26 -3 -32 7 -32 13 1 11 16 0 27 -4 25 -8z m-491 -45 c-3 -7
-6 -13 -8 -13 -2 0 -5 6 -8 13 -3 8 1 14 8 14 7 0 11 -6 8 -14z m451 -15 c-3
-4 1 -8 8 -8 8 0 6 -5 -5 -11 -10 -6 -21 -8 -24 -5 -4 3 -1 6 7 6 9 0 10 3 1
13 -8 10 -7 14 4 14 8 0 12 -4 9 -9z m-34 -2 c0 -2 -8 -10 -17 -17 -16 -13
-17 -12 -4 4 13 16 21 21 21 13z m-27 -51 c-3 -9 -8 -14 -10 -11 -3 3 -2 9 2
15 9 16 15 13 8 -4z m-13 -104 c0 -5 -8 -15 -17 -22 -16 -12 -17 -12 -6 2 7 9
10 19 6 22 -3 4 -1 7 5 7 7 0 12 -4 12 -9z m5 -61 c3 -5 1 -10 -4 -10 -6 0
-11 5 -11 10 0 6 2 10 4 10 3 0 8 -4 11 -10z m-14 -27 c12 -16 12 -17 -2 -6
-9 7 -20 9 -24 5 -5 -4 -5 -1 -1 6 9 16 11 15 27 -5z m29 -27 c0 -3 -4 -8 -10
-11 -5 -3 -10 -1 -10 4 0 6 5 11 10 11 6 0 10 -2 10 -4z m-396 -22 c3 -8 2
-12 -4 -9 -6 3 -10 10 -10 16 0 14 7 11 14 -7z m-9 -45 c-2 -10 -7 -24 -10
-29 -3 -6 0 -10 7 -11 10 0 10 -2 -1 -6 -11 -5 -11 -7 0 -14 10 -6 7 -8 -8 -6
-17 1 -19 4 -11 14 8 10 7 13 -3 13 -11 0 -11 2 1 10 13 9 13 11 0 20 -9 6
-10 10 -3 10 7 0 10 9 8 21 -3 17 -2 19 10 9 7 -6 12 -20 10 -31z m422 5 c2
-13 1 -15 -4 -4 -3 8 -11 19 -17 23 -7 6 -6 7 4 4 8 -2 16 -12 17 -23z m65
-37 c-9 -10 -6 -18 9 -31 15 -12 18 -21 11 -28 -6 -6 -8 -17 -5 -24 3 -8 -1
-14 -8 -14 -7 0 -9 3 -6 7 4 3 -1 12 -11 19 -9 7 -12 14 -6 14 19 0 11 33 -9
38 -18 5 -18 6 4 18 31 17 34 17 21 1z m-462 -47 c0 -5 -5 -10 -11 -10 -5 0
-7 5 -4 10 3 6 8 10 11 10 2 0 4 -4 4 -10z m-24 -35 c2 -13 -1 -14 -12 -4 -18
15 -18 10 2 -36 8 -20 10 -34 5 -30 -6 3 -11 14 -11 23 0 13 -2 13 -16 -4 -15
-18 -15 -18 -5 3 14 28 14 36 0 27 -8 -4 -8 0 0 15 7 11 9 21 6 21 -4 0 -3 5
1 11 8 13 27 -3 30 -26z m2 -130 c-3 -3 -9 2 -12 12 -6 14 -5 15 5 6 7 -7 10
-15 7 -18z m-42 -29 c1 -7 -5 -13 -12 -13 -8 0 -14 4 -14 9 0 4 5 8 11 8 5 0
7 6 3 13 -4 6 -3 8 1 4 5 -4 10 -13 11 -21z m544 -26 c0 -5 -2 -10 -4 -10 -3
0 -8 5 -11 10 -3 6 -1 10 4 10 6 0 11 -4 11 -10z m-574 -22 c4 -7 3 -8 -4 -4
-7 4 -12 2 -12 -5 0 -7 -3 -10 -6 -6 -6 5 3 27 11 27 2 0 7 -5 11 -12z m594
-12 c0 -3 -4 -8 -10 -11 -5 -3 -10 -1 -10 4 0 6 5 11 10 11 6 0 10 -2 10 -4z
m47 -108 c-3 -8 -6 -5 -6 6 -1 11 2 17 5 13 3 -3 4 -12 1 -19z m33 -12 c0 -3
-4 -8 -10 -11 -5 -3 -10 -1 -10 4 0 6 5 11 10 11 6 0 10 -2 10 -4z m-749 -133
c12 -16 12 -17 -2 -6 -9 7 -20 9 -24 5 -5 -4 -5 -1 -1 6 9 16 11 15 27 -5z
m26 -43 c1 -11 -2 -20 -7 -20 -6 0 -7 17 -1 38 3 8 7 -1 8 -18z m-42 -20 c3
-11 11 -19 18 -17 6 1 11 -3 12 -10 0 -13 13 -27 26 -29 5 -1 14 -2 20 -3 5 0
7 -5 4 -11 -3 -5 -1 -11 4 -11 6 -1 17 -2 24 -3 6 -1 17 1 23 6 6 4 11 2 11
-7 0 -8 -4 -12 -9 -9 -4 3 -8 1 -8 -5 0 -5 5 -13 10 -16 6 -3 10 -12 9 -18 0
-9 -2 -8 -6 1 -2 6 -10 9 -16 5 -7 -4 -30 -8 -52 -9 -55 -2 -57 -3 -50 -13 3
-5 0 -13 -6 -17 -8 -4 -7 -9 2 -16 11 -7 9 -8 -4 -4 -10 3 -31 -1 -46 -8 -26
-14 -53 -9 -53 10 0 5 -5 8 -11 6 -16 -5 -27 21 -16 35 6 6 17 9 25 6 8 -3 14
-2 13 3 -3 21 2 26 15 15 11 -9 16 -9 22 0 4 7 -2 20 -16 31 -22 18 -22 19 -4
32 23 18 31 12 14 -9 -11 -13 -11 -16 1 -13 8 2 13 -3 12 -9 -3 -12 9 -17 30
-14 4 0 7 -4 7 -10 0 -6 -6 -9 -14 -6 -20 8 -28 -4 -13 -21 10 -13 8 -14 -11
-8 -23 8 -31 -7 -10 -20 7 -4 8 -3 4 4 -5 8 -2 10 9 6 14 -6 14 -8 -2 -21 -16
-13 -16 -13 5 -3 12 6 20 15 17 21 -4 5 1 12 9 15 9 3 13 11 9 17 -3 5 -1 7 5
3 6 -3 14 -2 17 4 5 8 12 7 23 -2 10 -8 13 -9 9 -1 -4 6 -3 14 3 18 5 3 10 1
10 -6 0 -7 3 -10 6 -6 3 3 2 13 -3 22 -8 14 -12 14 -36 -5 -15 -12 -27 -16
-27 -10 0 6 6 13 14 16 14 5 16 28 3 40 -7 7 -11 -11 -8 -29 1 -5 -3 -6 -9 -2
-6 3 -7 11 -4 17 4 7 2 8 -5 4 -6 -4 -9 -11 -6 -16 3 -5 1 -11 -5 -15 -10 -6
-13 3 -13 38 0 9 -2 17 -6 18 -3 0 -14 2 -24 4 -11 2 -15 -1 -11 -8 4 -7 1 -7
-7 1 -11 11 -12 14 -1 21 8 5 14 12 15 17 1 5 5 8 10 7 4 -2 7 2 7 7 0 18 29
10 35 -10z m79 -36 c3 -8 2 -12 -4 -9 -6 3 -10 10 -10 16 0 14 7 11 14 -7z
m41 -24 c-3 -5 -12 -10 -18 -10 -7 0 -6 4 3 10 19 12 23 12 15 0z m-221 -25
c3 -8 1 -15 -3 -15 -5 0 -11 7 -15 15 -3 8 -1 15 3 15 5 0 11 -7 15 -15z m277
-58 c-6 -6 -11 -9 -12 -6 0 2 -2 14 -5 27 -4 22 -3 22 12 7 13 -12 14 -19 5
-28z m186 28 c0 -8 -4 -12 -9 -9 -5 3 -6 10 -3 15 9 13 12 11 12 -6z m463 4
c0 -4 -9 -7 -19 -6 -11 0 -18 4 -16 7 6 9 35 8 35 -1z m-31 -22 c14 4 14 3 1
-6 -21 -15 -27 -14 -35 7 -5 13 -3 14 6 5 6 -6 19 -9 28 -6z m-396 -11 c19 2
27 -1 24 -9 -3 -7 -11 -10 -18 -9 -8 2 -23 6 -33 8 -11 2 -24 9 -30 15 -8 9
-6 9 9 2 11 -5 33 -8 48 -7z m67 -6 c0 -5 -7 -7 -15 -4 -8 4 -15 8 -15 10 0 2
7 4 15 4 8 0 15 -4 15 -10z m-595 -29 c-3 -2 -16 -6 -28 -8 -15 -2 -18 0 -9 5
14 9 45 12 37 3z m1102 -15 c0 -6 2 -15 3 -21 5 -22 -1 -34 -14 -29 -8 3 -17
0 -21 -5 -3 -6 -10 -9 -15 -6 -11 7 -2 35 12 35 5 0 6 -5 2 -12 -4 -6 -3 -8 3
-5 6 4 9 17 8 30 -2 13 2 24 9 24 7 0 13 -5 13 -11z m-1130 -42 c0 -7 -6 -10
-14 -7 -7 3 -13 8 -13 12 0 4 6 8 13 8 8 0 14 -6 14 -13z"/>
<path d="M1666 2475 c19 -15 19 -15 -1 -9 -19 6 -19 6 1 -9 21 -16 53 -17 57
-2 1 4 -7 9 -18 11 -11 2 -21 8 -23 13 -2 6 -11 11 -20 11 -13 0 -12 -3 4 -15z"/>
<path d="M1445 1601 c-3 -5 -2 -12 3 -15 5 -3 9 1 9 9 0 17 -3 19 -12 6z"/>
<path d="M1953 1035 c0 -8 4 -12 9 -9 5 3 6 10 3 15 -9 13 -12 11 -12 -6z"/>
<path d="M1276 471 c-4 -6 -11 -9 -15 -7 -4 3 -8 -1 -8 -9 0 -8 2 -13 5 -10 9
9 42 -16 36 -27 -5 -8 -1 -9 10 -5 10 4 20 7 22 7 3 0 0 6 -6 13 -6 6 -17 21
-24 31 -9 13 -15 16 -20 7z m19 -21 c3 -6 -1 -7 -9 -4 -18 7 -21 14 -7 14 6 0
13 -4 16 -10z"/>
<path d="M1355 400 c-3 -5 -1 -10 4 -10 6 0 11 5 11 10 0 6 -2 10 -4 10 -3 0
-8 -4 -11 -10z"/>
<path d="M1394 360 c0 -11 6 -15 17 -13 10 3 15 11 13 17 -7 19 -30 15 -30 -4z"/>
<path d="M1231 343 c4 -26 -1 -35 -15 -24 -10 8 -16 9 -21 1 -6 -10 -5 -11 16
-14 6 0 16 -9 24 -19 11 -15 14 -15 18 -3 4 9 2 18 -4 22 -6 3 -8 12 -5 20 3
7 1 16 -5 19 -5 4 -9 3 -8 -2z"/>
<path d="M1737 2538 c2 -5 10 -8 18 -8 8 0 16 3 18 8 3 4 -5 7 -18 7 -13 0
-21 -3 -18 -7z"/>
<path d="M1750 2490 c0 -6 7 -10 15 -10 8 0 15 2 15 4 0 2 -7 6 -15 10 -8 3
-15 1 -15 -4z"/>
<path d="M1436 2361 c-3 -4 6 -7 19 -7 14 0 22 2 19 5 -8 8 -34 10 -38 2z"/>
<path d="M1742 2308 c5 -36 13 -42 35 -28 16 10 16 11 1 6 -10 -3 -19 -1 -19
4 -1 6 -2 14 -3 19 0 5 -5 13 -9 17 -5 5 -7 -3 -5 -18z"/>
<path d="M1450 2301 c0 -6 5 -11 11 -11 5 0 7 -4 4 -10 -10 -17 12 -11 26 7
10 12 11 15 1 9 -7 -4 -19 -2 -27 4 -11 9 -15 9 -15 1z"/>
<path d="M1436 2253 c-6 -14 -5 -15 5 -6 7 7 10 15 7 18 -3 3 -9 -2 -12 -12z"/>
<path d="M1759 2259 c-12 -7 -12 -9 1 -9 13 0 13 -1 0 -10 -8 -5 -15 -14 -15
-20 0 -6 -7 -15 -15 -20 -12 -8 -13 -11 -2 -22 8 -7 13 -8 12 -3 -5 24 2 26
25 11 14 -9 25 -12 25 -7 0 5 -6 12 -12 15 -10 5 -10 7 0 12 6 3 12 10 12 16
0 7 -5 6 -14 -1 -9 -7 -17 -8 -20 -3 -3 6 1 13 10 16 9 3 12 11 8 18 -5 8 -2
9 9 5 9 -3 18 -3 21 1 7 11 -28 12 -45 1z"/>
<path d="M1455 2223 c2 -10 4 -20 5 -23 1 -3 2 -9 0 -15 -1 -5 5 -4 12 4 10
11 10 14 0 18 -6 3 -10 9 -7 13 3 5 1 11 -4 14 -5 4 -8 -2 -6 -11z"/>
<path d="M1448 2122 c-4 -15 -1 -18 14 -14 11 2 16 8 11 11 -4 3 -11 10 -14
14 -4 4 -9 -1 -11 -11z"/>
<path d="M1444 1992 c3 -6 -2 -13 -11 -15 -16 -4 -16 -5 -1 -6 21 -1 32 15 17
25 -7 4 -9 3 -5 -4z"/>
<path d="M1433 1940 c-1 -11 2 -20 7 -20 4 0 7 7 6 15 -3 23 -12 26 -13 5z"/>
<path d="M1797 1878 c4 -7 8 -22 8 -33 0 -24 36 -28 42 -5 4 13 3 13 -6 0 -9
-13 -11 -13 -11 1 0 8 6 21 13 29 10 12 9 12 -5 1 -15 -11 -19 -11 -24 3 -3 9
-10 16 -16 16 -5 0 -6 -6 -1 -12z"/>
<path d="M1390 1862 c0 -5 7 -9 15 -9 8 0 12 4 9 9 -3 4 -9 8 -15 8 -5 0 -9
-4 -9 -8z"/>
<path d="M1953 1813 c4 -3 1 -13 -6 -22 -11 -14 -10 -14 5 -2 16 12 16 31 1
31 -4 0 -3 -3 0 -7z"/>
<path d="M2034 1812 c3 -5 0 -13 -6 -15 -9 -4 -10 -6 -1 -6 17 -1 25 16 12 25
-7 4 -9 3 -5 -4z"/>
<path d="M2200 1806 c0 -2 8 -10 18 -17 15 -13 16 -12 3 4 -13 16 -21 21 -21
13z"/>
<path d="M1386 1782 c-3 -5 1 -9 9 -9 8 0 15 4 15 9 0 4 -4 8 -9 8 -6 0 -12
-4 -15 -8z"/>
<path d="M1400 1700 c-9 -6 -10 -10 -3 -10 6 0 15 5 18 10 8 12 4 12 -15 0z"/>
<path d="M2220 1659 c0 -4 7 -10 16 -13 8 -3 13 -2 9 3 -3 5 1 11 7 14 7 3 3
4 -9 4 -13 -1 -23 -4 -23 -8z"/>
<path d="M2216 1622 c-2 -4 4 -8 14 -8 10 0 16 4 14 8 -3 4 -9 8 -14 8 -5 0
-11 -4 -14 -8z"/>
<path d="M2106 1611 c-4 -5 -14 -7 -22 -4 -13 5 -15 1 -10 -18 l7 -24 -13 22
c-13 22 -14 22 -26 3 -17 -28 -15 -35 5 -19 10 8 14 9 10 2 -8 -13 31 -45 45
-37 4 3 4 14 -2 24 -12 23 -13 33 -2 26 4 -2 14 -1 22 4 11 7 12 12 4 20 -8 8
-14 8 -18 1z m-12 -58 c4 -11 1 -11 -14 -3 -24 13 -25 17 -5 17 8 0 16 -6 19
-14z"/>
<path d="M2190 1605 c0 -8 4 -15 10 -15 5 0 7 7 4 15 -4 8 -8 15 -10 15 -2 0
-4 -7 -4 -15z"/>
<path d="M2122 1573 c-13 -5 -7 -23 9 -23 6 0 8 4 5 9 -4 5 0 12 6 14 7 3 9 5
3 5 -5 0 -16 -2 -23 -5z"/>
<path d="M1406 1558 c3 -5 10 -6 15 -3 13 9 11 12 -6 12 -8 0 -12 -4 -9 -9z"/>
<path d="M2190 1559 c0 -5 5 -7 10 -4 6 3 10 8 10 11 0 2 -4 4 -10 4 -5 0 -10
-5 -10 -11z"/>
<path d="M2135 1530 c-4 -6 -10 -8 -14 -6 -4 3 -8 -1 -8 -9 0 -13 4 -12 19 2
18 16 22 23 14 23 -3 0 -8 -5 -11 -10z"/>
<path d="M1410 1499 c0 -5 5 -7 10 -4 6 3 10 8 10 11 0 2 -4 4 -10 4 -5 0 -10
-5 -10 -11z"/>
<path d="M1998 1489 c-9 -5 -14 -19 -13 -34 2 -14 -1 -26 -6 -26 -19 -3 -25
-5 -43 -15 -14 -9 -15 -13 -6 -19 9 -6 6 -13 -11 -26 -15 -11 -19 -19 -10 -19
11 0 10 -4 -3 -19 -10 -11 -15 -25 -11 -31 4 -7 -2 -14 -14 -17 -25 -6 -28
-21 -3 -19 17 1 19 -6 7 -35 -3 -9 0 -23 8 -30 8 -8 13 -22 11 -32 -1 -9 2
-17 7 -17 6 0 7 -5 3 -12 -4 -6 -3 -8 4 -4 6 3 15 -2 21 -11 6 -10 11 -13 11
-6 0 7 6 10 14 7 8 -3 17 -1 21 5 4 7 0 8 -11 4 -13 -5 -15 -3 -9 8 7 11 6 12
-7 2 -8 -7 -18 -10 -21 -6 -10 9 -9 25 1 19 4 -2 14 0 22 5 11 7 7 8 -12 5
-15 -3 -31 1 -34 7 -4 7 -4 9 1 5 12 -11 45 11 44 30 -1 16 -2 16 -6 0 -5 -20
-18 -23 -28 -8 -4 6 -10 8 -15 5 -5 -3 -12 0 -16 6 -5 8 -3 9 6 4 9 -5 10 -2
5 14 -5 15 -3 19 8 15 7 -2 19 2 26 9 9 12 8 16 -4 21 -12 4 -13 10 -6 25 6
10 7 21 4 25 -3 3 -1 6 5 6 16 0 24 -17 12 -25 -5 -3 -10 -11 -10 -17 0 -6 9
1 21 16 20 26 20 28 4 46 -10 11 -13 20 -7 20 6 0 14 -4 17 -10 3 -5 12 -10
18 -9 9 0 9 2 0 5 -7 3 -9 12 -6 20 4 11 8 12 19 3 12 -10 13 -8 8 6 -5 12 -4
16 4 11 6 -4 16 3 22 16 9 19 9 21 -2 8 -7 -8 -20 -16 -28 -18 -8 -2 -20 -9
-25 -17 -12 -15 -45 -2 -45 18 0 8 3 8 9 -1 6 -10 16 -9 45 9 30 17 35 25 30
43 -6 18 -5 19 10 7 9 -8 16 -9 16 -3 0 6 -6 12 -12 15 -7 2 -9 8 -5 13 5 5
15 1 23 -10 12 -17 14 -18 14 -3 0 9 -3 18 -7 18 -32 6 -53 5 -65 -2z m15 -20
c-8 -8 -13 -7 -18 2 -5 8 -4 10 3 5 7 -4 12 -2 12 5 0 7 3 9 7 6 4 -4 2 -12
-4 -18z m7 -28 c0 -5 -6 -11 -13 -14 -8 -3 -14 1 -14 9 0 8 6 14 14 14 7 0 13
-4 13 -9z m-40 -27 c0 -8 -19 -13 -24 -6 -3 5 1 9 9 9 8 0 15 -2 15 -3z m-34
-43 c-3 -5 1 -14 9 -21 8 -7 15 -17 15 -22 0 -6 -6 -5 -15 2 -15 13 -39 5 -30
-11 4 -5 2 -9 -4 -9 -11 0 -9 -19 3 -38 12 -19 -1 -27 -19 -12 -12 10 -13 16
-4 26 6 8 8 14 4 14 -4 0 0 11 9 25 9 14 14 25 10 25 -4 0 -1 7 6 15 13 16 25
21 16 6z"/>
<path d="M2093 1473 c0 -9 4 -10 14 -2 7 6 13 12 13 14 0 1 -6 2 -13 2 -8 0
-14 -6 -14 -14z"/>
<path d="M2130 1480 c0 -5 5 -10 11 -10 5 0 7 5 4 10 -3 6 -8 10 -11 10 -2 0
-4 -4 -4 -10z"/>
<path d="M1434 1377 c2 -14 0 -27 -5 -29 -5 -2 -11 -13 -14 -26 -2 -13 0 -20
6 -17 5 4 7 10 4 14 -2 5 4 16 14 25 21 19 22 47 2 54 -8 3 -10 -5 -7 -21z"/>
<path d="M995 1361 c4 -8 2 -17 -6 -22 -9 -6 -10 -9 -2 -9 19 0 27 21 13 33
-10 9 -11 9 -5 -2z"/>
<path d="M1027 1359 c9 -9 8 -15 -5 -28 -10 -9 -13 -13 -8 -8 17 12 29 8 17
-7 -10 -11 -7 -17 11 -30 29 -21 15 -21 -17 0 -13 9 -30 12 -36 8 -9 -5 -10
-2 -6 9 4 12 2 14 -10 10 -11 -4 -14 -2 -9 5 4 7 2 12 -3 12 -14 0 -14 -17 -1
-25 6 -4 8 -11 5 -16 -7 -11 -26 -12 -22 -1 1 4 -1 8 -5 10 -17 5 -20 1 -8
-13 13 -16 6 -35 -13 -34 -9 0 -9 2 0 6 10 3 10 8 -1 19 -18 17 -32 19 -19 2
8 -12 9 -35 4 -83 -3 -17 -4 -17 -11 5 l-7 25 -11 -27 c-13 -31 -27 -39 -18
-10 4 10 -1 27 -10 38 -8 10 -13 14 -9 7 3 -7 -6 -19 -22 -27 -27 -15 -27 -15
-4 -13 16 1 25 -4 26 -15 2 -11 -2 -15 -11 -11 -17 6 -19 -13 -1 -21 6 -2 1
-3 -13 -2 -14 2 -31 -1 -37 -6 -7 -6 -13 -7 -13 -3 0 4 -8 1 -17 -6 -16 -12
-17 -12 -7 1 9 12 8 18 -4 30 -14 13 -15 12 -9 -2 3 -9 -1 -22 -8 -28 -8 -7
-12 -17 -8 -23 3 -6 1 -7 -6 -3 -8 6 -9 12 -2 20 8 10 4 13 -19 13 -17 0 -27
-5 -23 -10 4 -6 1 -7 -7 -2 -7 4 -16 2 -22 -6 -8 -11 -9 -10 -5 3 3 9 -1 19
-9 22 -9 3 -12 1 -9 -4 3 -6 1 -10 -4 -10 -6 0 -11 10 -12 23 0 12 -3 16 -6 9
-2 -6 -9 -9 -15 -6 -5 4 -5 -3 2 -16 6 -12 9 -24 6 -28 -3 -3 -6 0 -6 6 0 7
-6 11 -12 10 -7 -2 -12 2 -12 7 1 6 -7 19 -19 30 -11 11 -17 14 -13 7 14 -24
17 -62 5 -62 -7 0 -9 3 -6 6 8 8 -24 64 -36 64 -5 0 -3 -8 4 -17 12 -15 12
-16 -5 -10 -16 6 -17 5 -6 -8 11 -13 10 -14 -5 -9 -15 6 -16 4 -6 -17 11 -22
11 -23 -3 -5 -9 11 -21 16 -32 12 -14 -5 -15 -4 -4 9 7 8 15 13 19 11 4 -3 7
4 7 15 0 18 -2 18 -12 5 -13 -18 -29 -22 -18 -4 4 7 3 8 -5 4 -6 -4 -9 -12 -6
-17 4 -5 1 -9 -5 -9 -6 0 -8 -4 -5 -10 4 -6 -1 -7 -11 -3 -13 5 -15 3 -9 -8 8
-12 6 -12 -8 0 -9 7 -15 17 -12 21 3 5 0 12 -6 16 -8 4 -9 3 -5 -4 4 -7 2 -12
-5 -12 -8 0 -7 -5 2 -17 13 -16 13 -16 -11 0 -26 18 -45 22 -36 8 3 -5 -2 -15
-12 -22 -15 -12 -16 -12 -6 1 23 33 -5 60 -41 40 -5 -4 -17 -6 -25 -5 -8 0
-25 -14 -38 -32 -13 -19 -27 -31 -31 -29 -5 3 -8 -3 -7 -14 1 -22 18 -29 25
-9 2 7 -1 9 -9 4 -9 -5 -11 -4 -6 4 4 6 12 9 17 5 5 -3 8 0 7 7 -2 6 7 12 19
14 14 1 19 -3 16 -12 -3 -7 -9 -11 -14 -8 -10 7 -34 -35 -31 -55 2 -11 0 -10
-8 3 -16 25 -33 22 -19 -4 6 -12 7 -19 2 -16 -5 3 -16 -8 -25 -24 -16 -26 -12
-40 6 -22 10 10 56 12 50 2 -2 -4 -13 -6 -24 -4 -11 2 -22 0 -25 -4 -6 -10
-71 -8 -67 2 1 4 2 10 2 15 0 4 5 0 10 -8 7 -11 10 -11 10 -2 0 7 4 11 9 7 5
-3 13 0 17 6 5 8 3 9 -6 4 -8 -5 -11 -3 -8 6 3 8 10 13 16 12 5 -1 12 3 15 10
3 7 -3 13 -12 13 -9 1 -25 4 -36 8 -13 5 -11 2 5 -8 22 -13 21 -21 -2 -17 -4
0 -4 -7 -1 -17 6 -14 4 -15 -9 -4 -13 10 -19 9 -34 -5 -11 -10 -15 -15 -10
-10 17 12 29 8 17 -6 -6 -8 -7 -18 -3 -22 4 -5 0 -6 -8 -3 -12 4 -15 -3 -16
-33 -1 -21 3 -36 8 -33 5 3 7 12 4 20 -3 8 -1 14 5 14 6 0 8 4 5 9 -3 5 1 14
9 21 14 11 19 7 16 -12 0 -5 4 -8 9 -8 6 0 10 5 10 10 0 6 5 10 11 10 8 0 8
-5 -1 -15 -7 -8 -20 -14 -28 -13 -9 2 -18 -5 -20 -14 -2 -10 2 -18 8 -18 6 0
9 4 6 8 -2 4 10 9 27 10 l32 2 -34 -15 c-18 -8 -38 -12 -44 -8 -7 4 -8 0 -4
-11 4 -10 7 -21 7 -24 0 -4 4 -2 8 5 6 9 11 6 21 -8 7 -12 8 -18 2 -14 -6 3
-11 -1 -11 -10 0 -11 6 -14 24 -9 13 3 26 2 29 -3 3 -5 -12 -8 -34 -7 -33 2
-38 0 -28 -12 8 -9 16 -11 28 -4 13 6 18 5 18 -6 0 -8 -7 -13 -15 -12 -8 2
-17 -3 -20 -11 -3 -8 0 -11 6 -7 6 3 15 -2 21 -11 9 -16 10 -16 11 -1 0 9 5
20 12 24 8 5 9 2 5 -9 -4 -10 -10 -24 -14 -34 -5 -12 -3 -14 8 -7 23 14 38 13
32 -3 -5 -12 -7 -12 -14 -1 -8 12 -13 4 -10 -15 1 -5 -3 -6 -9 -2 -5 3 -10 -1
-10 -9 0 -19 11 -20 29 -3 11 10 12 9 6 -2 -6 -11 -4 -13 11 -8 14 5 12 2 -6
-12 -25 -20 -25 -20 -7 -50 15 -26 16 -30 2 -25 -8 3 -15 1 -15 -5 0 -6 6 -11
14 -11 19 0 55 -51 48 -69 -3 -9 0 -11 9 -6 8 5 11 4 6 0 -4 -5 0 -16 9 -26 8
-9 11 -20 6 -23 -5 -3 -17 3 -27 14 -10 11 -15 20 -11 20 4 0 1 10 -6 23 -7
12 -11 29 -10 37 3 13 2 13 -9 0 -9 -13 -10 -13 -6 1 3 9 0 16 -6 16 -7 0 -13
-12 -14 -25 0 -16 2 -20 7 -12 5 7 10 8 14 2 3 -5 -1 -15 -9 -22 -8 -7 -15
-17 -15 -22 0 -6 9 0 20 13 10 13 19 19 20 14 0 -6 -3 -15 -8 -20 -4 -6 -6 -9
-4 -8 8 4 29 -22 27 -32 -1 -5 0 -7 2 -2 3 4 9 4 14 1 6 -3 6 -11 -2 -20 -6
-7 -16 -11 -22 -7 -5 3 -7 1 -3 -5 3 -5 0 -12 -6 -15 -7 -3 -3 -4 9 -4 12 1
20 4 17 8 -2 4 5 7 16 6 25 -2 25 -6 2 -24 -11 -10 -8 -10 11 1 31 19 37 4 7
-17 -18 -13 -19 -16 -5 -27 13 -11 14 -10 10 2 -3 8 1 21 10 28 8 7 15 9 15 5
0 -4 7 -2 15 5 18 15 20 -1 3 -18 -9 -9 -9 -12 0 -12 7 0 12 5 12 12 0 6 3 9
6 5 12 -11 84 32 78 47 -7 18 18 15 42 -4 16 -14 16 -13 3 8 -8 12 -17 22 -21
22 -4 0 -5 8 -1 18 5 14 3 14 -11 -3 -10 -11 -14 -13 -10 -5 4 9 3 12 -2 7 -5
-5 -10 -13 -10 -18 -1 -5 -2 -13 -3 -18 -2 -13 -30 -41 -42 -41 -6 0 -8 4 -5
8 6 11 -25 9 -43 -2 -9 -6 -12 -5 -9 5 3 8 15 13 28 11 20 -2 21 0 9 15 -8 9
-9 14 -3 10 7 -4 15 0 18 9 3 8 10 12 16 9 5 -3 15 -3 22 1 8 5 6 10 -8 16
-17 7 -16 8 3 4 13 -2 34 4 48 16 14 10 29 17 34 13 5 -3 12 -1 16 5 3 5 1 10
-6 10 -7 0 -10 3 -6 6 3 3 11 3 17 -1 8 -5 7 -11 -2 -23 -11 -13 -11 -14 0 -8
7 4 20 2 29 -6 12 -9 15 -9 9 0 -4 6 -3 12 3 12 6 0 8 8 5 18 -5 14 -3 14 10
-2 20 -24 44 -29 42 -9 0 9 5 18 12 20 8 3 10 -1 6 -14 -6 -16 -5 -16 9 2 8
11 13 23 11 27 -2 4 0 9 5 12 5 4 8 -5 7 -18 -2 -18 1 -23 12 -18 8 3 21 -3
28 -13 8 -10 14 -14 14 -8 0 7 -5 15 -11 19 -8 5 -6 10 5 16 9 5 14 13 11 18
-3 5 -1 11 4 14 11 7 9 -13 -2 -31 -5 -7 -4 -13 2 -13 5 0 13 4 16 10 8 13 81
-24 89 -45 3 -9 2 -13 -4 -10 -6 3 -10 1 -10 -4 0 -6 -5 -11 -11 -11 -5 0 -7
4 -4 10 4 6 -1 7 -11 3 -14 -5 -13 -8 7 -19 13 -7 19 -13 13 -14 -6 0 -16 -11
-22 -25 -15 -32 -15 -35 -1 -35 5 0 8 4 5 9 -3 5 3 20 14 33 11 14 16 28 13
32 -3 3 5 6 20 6 26 0 42 12 30 24 -10 10 -11 46 -1 40 5 -4 7 -12 4 -20 -4
-9 3 -18 17 -24 18 -7 19 -9 4 -9 -10 -1 -15 -6 -12 -11 4 -7 13 -7 25 0 16 8
18 8 14 -5 -4 -8 -1 -15 5 -15 11 0 15 12 12 40 -1 12 0 12 7 2 7 -10 11 -10
22 3 10 12 16 13 26 4 11 -9 18 -8 29 1 8 6 18 9 23 7 4 -3 14 -2 22 3 13 8
13 11 1 22 -8 7 -11 8 -8 3 3 -6 -2 -11 -11 -11 -9 -1 -24 -3 -32 -6 -8 -3
-11 -3 -7 0 4 2 2 11 -5 20 -10 14 -10 15 2 5 17 -15 34 -17 25 -3 -4 6 1 7
11 3 12 -5 15 -3 9 6 -6 10 -3 11 11 3 11 -5 25 -7 33 -4 9 3 11 0 6 -8 -5 -9
-4 -11 3 -6 9 5 9 13 1 28 -10 18 -9 20 7 14 17 -7 17 -6 -1 12 -11 11 -24 17
-29 14 -4 -2 -4 -7 0 -11 5 -3 10 -11 11 -17 3 -18 -26 -12 -44 10 l-18 21 24
-20 c20 -16 23 -17 18 -4 -3 9 0 22 6 29 10 10 8 11 -8 6 -15 -5 -17 -4 -9 4
9 9 19 7 40 -7 16 -10 25 -12 21 -5 -5 6 -3 13 2 13 6 1 17 2 24 3 6 1 11 10
10 19 0 12 4 16 13 13 8 -3 17 1 20 9 4 8 10 12 15 9 5 -3 9 0 9 5 0 16 -20
13 -26 -3 -6 -16 -34 -11 -34 6 0 5 4 7 9 4 8 -5 30 15 46 43 5 9 4 12 -3 7
-6 -3 -14 3 -17 15 -6 17 -9 19 -16 8 -12 -19 -11 -29 2 -27 6 2 14 -3 16 -9
3 -7 0 -13 -7 -13 -6 0 -8 5 -4 12 4 7 3 8 -4 4 -6 -4 -9 -13 -5 -22 3 -9 0
-14 -8 -12 -8 2 -13 -4 -13 -14 1 -10 -3 -15 -9 -11 -6 4 -7 1 -2 -7 5 -9 4
-11 -3 -6 -8 5 -10 2 -6 -8 3 -9 1 -16 -5 -16 -18 0 -26 4 -23 13 2 7 -14 11
-31 8 -5 -1 -6 3 -2 9 4 7 12 7 25 0 15 -8 22 -5 39 19 27 37 27 49 1 26 -11
-10 -20 -13 -20 -7 0 7 5 12 11 12 8 0 7 6 -2 18 -13 15 -12 16 3 4 15 -12 19
-10 32 17 9 16 21 33 27 37 7 4 9 3 6 -3 -4 -6 1 -17 10 -24 12 -10 14 -10 9
-1 -4 6 -2 12 3 12 6 0 11 5 11 11 0 5 -4 8 -9 4 -5 -3 -13 0 -16 6 -4 5 -14
8 -22 5 -8 -4 -11 -1 -7 5 3 6 17 8 29 5 13 -3 27 -2 30 4 3 6 -1 7 -9 4 -10
-4 -18 1 -22 10 -5 13 -9 14 -20 5 -8 -6 -14 -9 -14 -6 0 4 17 18 37 32 21 14
33 25 26 25 -6 0 -10 7 -9 16 0 9 -5 18 -12 20 -7 1 -8 0 -2 -3 12 -6 13 -23
1 -23 -14 0 -20 25 -10 41 8 11 13 10 28 -8 15 -18 20 -20 25 -8 3 8 0 14 -7
12 -14 -2 -10 36 4 41 5 2 9 8 9 14 0 6 -7 5 -16 -3 -15 -12 -16 -11 -9 11 6
20 5 23 -6 13 -15 -15 -22 -46 -8 -37 5 3 9 -2 9 -10 0 -10 -6 -13 -15 -9 -9
3 -14 11 -12 17 2 6 0 19 -5 28 -6 13 -5 16 5 12 8 -3 20 3 28 12 12 16 12 17
-2 12 -9 -4 -16 -1 -16 7 0 10 5 11 18 5 12 -7 19 -5 23 5 6 17 -10 30 -17 15
-3 -6 -4 -5 -2 2 1 7 7 12 12 11 5 -1 15 8 22 19 11 18 11 20 -3 14 -42 -16
-48 -15 -16 3 35 20 68 29 40 11 -13 -9 -13 -10 0 -10 13 0 13 -1 0 -10 -10
-6 -11 -10 -2 -10 6 0 12 -5 12 -11 0 -8 -5 -8 -15 1 -10 9 -15 9 -15 1 0 -6
5 -11 10 -11 6 0 10 -5 10 -11 0 -5 -4 -8 -9 -5 -5 3 -16 -5 -24 -17 -14 -21
-13 -24 2 -34 14 -9 18 -8 18 3 0 7 -5 10 -10 7 -6 -4 -8 1 -4 11 4 10 7 21 7
24 0 4 5 0 10 -8 9 -13 10 -13 11 0 0 10 3 9 10 -5 8 -17 9 -16 4 6 -5 26 15
56 28 42 4 -3 7 -1 7 6 0 8 -7 10 -22 5 -21 -6 -21 -5 -9 10 13 15 13 19 0 27
-12 7 -7 13 12 11 3 -1 6 5 6 13 0 8 -5 11 -11 8 -16 -10 -46 -11 -46 -2 0 5
-10 5 -23 0 -17 -7 -24 -6 -24 4 0 7 8 10 19 7 12 -3 18 1 18 12 0 10 -6 13
-17 9 -15 -5 -14 -3 2 10 15 11 22 12 27 4 6 -9 8 -8 8 1 0 7 5 10 12 6 6 -4
8 -3 4 4 -7 11 -25 10 -61 -4 -17 -7 -18 -5 -8 8 7 8 9 19 5 23 -4 5 1 5 10 2
10 -3 20 -1 24 6 4 7 4 9 -1 5 -4 -4 -14 -3 -22 3 -7 6 -13 7 -13 2 0 -5 -7
-18 -15 -29 -15 -18 -15 -18 -8 0 5 14 3 17 -7 11 -9 -5 -11 -4 -6 4 4 6 12 8
18 5 6 -4 9 -1 6 7 -3 8 -12 13 -21 11 -8 -1 -18 1 -21 6 -7 12 26 11 42 -1
19 -15 14 4 -5 20 -17 14 -17 14 3 10 16 -3 20 1 19 17 -1 13 -10 22 -23 24
-12 2 -22 -1 -22 -6 0 -11 -57 -8 -68 3 -4 4 1 5 10 2 10 -3 20 -1 24 5 4 7 3
8 -4 4 -11 -7 -16 5 -13 30 1 7 -7 15 -16 18 -14 6 -15 4 -6 -5z m94 -78 c-25
-19 -56 -18 -45 1 4 6 9 6 14 -2 5 -8 9 -7 13 4 4 9 14 16 24 16 15 0 14 -4
-6 -19z m-146 -1 c-3 -5 -1 -10 4 -10 6 0 11 5 11 11 0 5 5 7 11 3 8 -4 1 -12
-17 -22 -16 -8 -32 -20 -36 -26 -5 -7 -8 -7 -8 -1 0 12 28 55 36 55 3 0 2 -4
-1 -10z m51 -19 c-9 -14 20 -21 35 -8 11 10 11 9 0 -5 -10 -14 -17 -15 -32 -7
-17 8 -18 29 -3 29 3 0 3 -4 0 -9z m-92 -37 c3 -8 2 -12 -4 -9 -6 3 -10 10
-10 16 0 14 7 11 14 -7z m56 2 c0 -3 -4 -8 -10 -11 -5 -3 -10 -1 -10 4 0 6 5
11 10 11 6 0 10 -2 10 -4z m-125 -75 c3 -5 2 -12 -3 -15 -5 -3 -9 1 -9 9 0 17
3 19 12 6z m-592 -17 c-2 -7 -13 -11 -24 -9 -10 2 -21 0 -24 -6 -4 -5 2 -9 11
-9 10 0 15 -3 11 -6 -3 -4 -14 -3 -24 1 -10 5 -25 7 -33 6 -11 -1 -10 2 4 13
10 9 22 13 27 11 4 -3 10 -2 13 3 8 13 44 9 39 -4z m224 -21 c-3 -10 -5 -4 -5
12 0 17 2 24 5 18 2 -7 2 -21 0 -30z m699 -15 c-10 -5 -23 -5 -33 1 -15 8 -11
10 15 9 26 -1 30 -3 18 -10z m-36 -13 c0 -2 -6 -5 -13 -8 -8 -3 -14 1 -14 8 0
7 6 11 14 8 7 -3 13 -6 13 -8z m-55 -65 c3 -5 1 -10 -4 -10 -6 0 -11 5 -11 10
0 6 2 10 4 10 3 0 8 -4 11 -10z m-978 -95 c0 -17 -13 -20 -21 -6 -4 5 0 12 6
14 7 3 13 6 14 6 0 1 1 -6 1 -14z m965 -37 c-2 -10 -6 -18 -7 -18 -1 0 -5 8
-7 18 -3 11 0 19 7 19 7 0 10 -8 7 -19z m-1007 -28 c-3 -5 -12 -10 -18 -10 -7
0 -6 4 3 10 19 12 23 12 15 0z m1033 -24 c9 3 4 -2 -11 -11 -16 -9 -31 -14
-35 -11 -3 3 0 6 6 6 7 0 13 10 13 23 1 16 3 17 6 5 3 -10 11 -15 21 -12z
m-1018 4 c-8 -5 -19 -10 -25 -10 -5 0 -3 5 5 10 8 5 20 10 25 10 6 0 3 -5 -5
-10z m19 -33 c0 -9 -2 -8 -6 1 -2 6 -10 9 -15 6 -7 -4 -8 -2 -4 5 9 13 26 5
25 -12z m936 -87 c3 -6 -1 -7 -9 -4 -18 7 -21 14 -7 14 6 0 13 -4 16 -10z
m-30 -80 c3 -5 1 -10 -4 -10 -6 0 -11 5 -11 10 0 6 2 10 4 10 3 0 8 -4 11 -10z
m-862 -15 c-3 -9 -8 -14 -10 -11 -3 3 -2 9 2 15 9 16 15 13 8 -4z m-28 -4 c-3
-5 -1 -12 5 -16 5 -3 10 -11 10 -18 0 -6 -6 -2 -14 8 -13 18 -13 35 0 35 3 0
3 -4 -1 -9z m50 -50 c3 -5 2 -12 -3 -15 -5 -3 -9 1 -9 9 0 17 3 19 12 6z m325
-25 c0 -3 -4 -8 -10 -11 -5 -3 -10 -1 -10 4 0 6 5 11 10 11 6 0 10 -2 10 -4z
m50 -11 c-6 -8 -8 -20 -4 -27 5 -10 4 -10 -5 -2 -13 12 -5 44 11 44 6 0 5 -6
-2 -15z m40 -11 c0 -9 5 -12 12 -8 7 4 8 3 4 -4 -12 -19 -23 -14 -28 13 -3 13
-1 22 3 19 5 -3 9 -12 9 -20z m30 22 c0 -3 -4 -8 -10 -11 -5 -3 -10 -1 -10 4
0 6 5 11 10 11 6 0 10 -2 10 -4z m-105 -23 c-1 -22 -24 -63 -25 -45 0 6 0 15
1 18 2 14 -26 22 -38 12 -8 -6 -16 -8 -20 -4 -3 3 -1 6 6 6 7 0 10 4 6 9 -6
10 27 7 44 -3 5 -3 11 1 15 9 7 20 13 19 11 -2z m-95 -3 c0 -5 -5 -10 -11 -10
-5 0 -7 5 -4 10 3 6 8 10 11 10 2 0 4 -4 4 -10z m310 6 c0 -2 -8 -10 -17 -17
-16 -13 -17 -12 -4 4 13 16 21 21 21 13z m-373 -41 c0 -8 -4 -12 -9 -9 -4 3
-8 0 -8 -7 0 -7 -3 -9 -6 -6 -4 4 -1 13 6 22 15 19 17 19 17 0z m-100 -57 c-3
-8 -6 -5 -6 6 -1 11 2 17 5 13 3 -3 4 -12 1 -19z m-42 -8 c-3 -5 4 -11 17 -11
17 -1 18 -3 5 -6 -9 -2 -14 -9 -11 -15 4 -6 -2 -5 -15 1 -11 7 -21 9 -21 5 0
-4 -3 -4 -7 -1 -3 4 2 14 13 22 23 17 27 18 19 5z"/>
<path d="M2018 1358 c-9 -5 -6 -7 9 -5 12 2 25 6 28 8 8 9 -23 6 -37 -3z"/>
<path d="M2080 1360 c-9 -6 -10 -10 -3 -10 6 0 15 5 18 10 8 12 4 12 -15 0z"/>
<path d="M1096 1338 c3 -5 10 -6 15 -3 13 9 11 12 -6 12 -8 0 -12 -4 -9 -9z"/>
<path d="M1072 1326 c7 -8 15 -12 17 -11 5 6 -10 25 -20 25 -5 0 -4 -6 3 -14z"/>
<path d="M2013 1325 c0 -8 4 -12 9 -9 5 3 6 10 3 15 -9 13 -12 11 -12 -6z"/>
<path d="M1970 1290 c-6 -11 -8 -20 -6 -20 3 0 10 9 16 20 6 11 8 20 6 20 -3
0 -10 -9 -16 -20z"/>
<path d="M810 1260 c0 -5 5 -10 11 -10 5 0 7 5 4 10 -3 6 -8 10 -11 10 -2 0
-4 -4 -4 -10z"/>
<path d="M863 1259 c9 -6 17 -15 17 -21 0 -6 -7 -5 -17 3 -16 12 -17 12 -6 -2
7 -9 9 -20 5 -25 -4 -4 0 -3 9 4 9 6 18 10 21 7 2 -3 5 2 5 10 0 8 -4 15 -9
15 -5 0 -7 4 -4 8 2 4 -5 9 -17 9 -20 2 -20 1 -4 -8z"/>
<path d="M1942 1240 c-12 -10 -19 -21 -15 -23 5 -3 16 6 26 19 21 29 19 30
-11 4z"/>
<path d="M1155 1240 c3 -5 8 -10 11 -10 2 0 4 5 4 10 0 6 -5 10 -11 10 -5 0
-7 -4 -4 -10z"/>
<path d="M1974 1200 c0 -13 4 -16 10 -10 7 7 7 13 0 20 -6 6 -10 3 -10 -10z"/>
<path d="M269 1183 c-13 -16 -12 -17 4 -4 9 7 17 15 17 17 0 8 -8 3 -21 -13z"/>
<path d="M358 1168 c8 -9 11 -22 7 -27 -3 -6 0 -8 8 -5 7 2 14 11 14 19 0 8
-3 13 -5 10 -3 -3 -12 1 -21 8 -14 10 -14 10 -3 -5z"/>
<path d="M616 1171 c-3 -5 1 -14 10 -21 19 -17 37 -1 23 20 -9 12 -10 12 -5
-3 4 -12 2 -17 -6 -14 -7 2 -12 10 -10 16 2 13 -5 15 -12 2z"/>
<path d="M700 1166 c0 -8 4 -17 9 -20 5 -4 7 3 4 14 -6 23 -13 26 -13 6z"/>
<path d="M763 1158 c-2 -16 1 -18 10 -9 7 7 8 14 1 21 -6 6 -10 2 -11 -12z"/>
<path d="M790 1165 c0 -8 2 -15 4 -15 2 0 6 7 10 15 3 8 1 15 -4 15 -6 0 -10
-7 -10 -15z"/>
<path d="M300 1155 c7 -8 17 -15 22 -15 5 0 3 7 -6 15 -8 8 -18 15 -22 15 -3
0 -1 -7 6 -15z"/>
<path d="M1210 1160 c-11 -7 -11 -10 -2 -10 8 0 10 -5 6 -12 -4 -7 -3 -9 1 -5
7 6 17 37 12 37 -1 0 -9 -5 -17 -10z"/>
<path d="M133 1135 c0 -8 4 -12 9 -9 5 3 6 10 3 15 -9 13 -12 11 -12 -6z"/>
<path d="M1180 1140 c0 -5 5 -10 11 -10 5 0 7 5 4 10 -3 6 -8 10 -11 10 -2 0
-4 -4 -4 -10z"/>
<path d="M1255 1141 c-6 -10 11 -24 32 -27 7 -1 15 1 18 6 2 4 -5 7 -18 6 -13
-1 -21 4 -19 12 2 14 -4 16 -13 3z"/>
<path d="M2016 1142 c-3 -5 1 -9 9 -9 8 0 12 4 9 9 -3 4 -7 8 -9 8 -2 0 -6 -4
-9 -8z"/>
<path d="M1370 1121 c0 -6 4 -13 10 -16 6 -3 7 1 4 9 -7 18 -14 21 -14 7z"/>
<path d="M1257 1099 c7 -7 15 -10 18 -7 3 3 -2 9 -12 12 -14 6 -15 5 -6 -5z"/>
<path d="M1981 1088 c-1 -20 14 -24 25 -6 4 6 3 8 -4 4 -5 -3 -13 0 -15 6 -3
8 -6 6 -6 -4z"/>
<path d="M1247 1079 c7 -7 15 -10 18 -7 3 3 -2 9 -12 12 -14 6 -15 5 -6 -5z"/>
<path d="M1296 1067 c3 -10 9 -15 12 -12 3 3 0 11 -7 18 -10 9 -11 8 -5 -6z"/>
<path d="M1400 1071 c0 -7 -5 -9 -12 -5 -7 5 -8 3 -3 -5 5 -9 10 -10 18 -2 6
6 8 14 4 18 -4 3 -7 1 -7 -6z"/>
<path d="M103 1053 c-15 -5 -17 -23 -4 -23 5 0 11 7 15 15 3 8 4 15 3 14 -1 0
-8 -3 -14 -6z"/>
<path d="M1345 1039 c-3 -4 2 -6 10 -5 21 3 28 13 10 13 -9 0 -18 -4 -20 -8z"/>
<path d="M1230 1020 c0 -5 5 -10 10 -10 6 0 10 5 10 10 0 6 -4 10 -10 10 -5 0
-10 -4 -10 -10z"/>
<path d="M1335 1011 c-3 -5 -2 -12 3 -15 5 -3 9 1 9 9 0 17 -3 19 -12 6z"/>
<path d="M5 999 c-4 -6 -4 -13 -1 -16 3 -4 6 -1 6 6 0 7 5 9 12 5 7 -4 8 -3 4
4 -9 15 -13 15 -21 1z"/>
<path d="M1360 993 c0 -6 8 -17 18 -24 16 -13 16 -13 2 6 -8 11 -16 22 -17 24
-2 2 -3 0 -3 -6z"/>
<path d="M1336 918 c3 -5 10 -6 15 -3 13 9 11 12 -6 12 -8 0 -12 -4 -9 -9z"/>
<path d="M2014 919 c-3 -6 -1 -16 5 -22 9 -9 10 -7 5 7 -6 15 -4 17 6 11 9 -5
11 -4 6 3 -9 15 -13 15 -22 1z"/>
<path d="M1311 887 c-8 -10 -7 -14 2 -14 8 0 14 6 14 14 0 7 -1 13 -2 13 -2 0
-8 -6 -14 -13z"/>
<path d="M4 766 c1 -70 3 -83 16 -78 12 5 13 3 3 -10 -11 -12 -9 -17 13 -27
15 -6 23 -7 19 -1 -3 5 -2 10 4 10 18 0 23 -20 6 -26 -12 -5 -13 -9 -4 -20 6
-8 8 -14 4 -14 -4 0 -2 -6 4 -13 6 -8 8 -17 4 -21 -4 -4 0 -4 10 0 9 3 17 10
17 16 0 5 5 6 12 2 7 -4 8 -3 4 5 -6 9 -11 9 -21 1 -9 -8 -15 -8 -20 0 -3 5
-2 10 3 10 5 0 18 12 27 28 10 15 12 22 5 15 -18 -17 -44 15 -28 34 7 9 7 13
-1 13 -6 0 -10 3 -10 8 1 4 1 14 0 22 -1 11 -3 12 -9 3 -6 -9 -11 -7 -20 7
-10 16 -10 20 0 20 7 1 2 10 -11 20 -13 11 -18 20 -12 20 5 0 15 9 21 20 6 11
7 20 3 19 -20 -3 -34 2 -28 11 3 6 2 10 -3 10 -5 0 -8 -38 -8 -84z m24 -8 c-3
-17 21 -60 30 -54 5 3 9 -5 9 -16 2 -20 1 -20 -12 -2 -13 18 -14 18 -8 -3 3
-15 1 -23 -7 -23 -7 0 -10 6 -7 14 3 8 -1 20 -8 26 -8 7 -13 22 -11 34 3 11 5
24 5 29 1 4 3 7 6 7 3 0 5 -6 3 -12z m62 -138 c0 -5 -4 -10 -10 -10 -5 0 -10
5 -10 10 0 6 5 10 10 10 6 0 10 -4 10 -10z"/>
<path d="M20 721 c0 -6 4 -13 10 -16 6 -3 7 1 4 9 -7 18 -14 21 -14 7z"/>
<path d="M1993 831 c2 -11 13 -31 26 -44 12 -14 21 -28 19 -33 -5 -14 5 -17
30 -10 l23 8 -22 19 c-12 10 -25 16 -29 14 -7 -4 -20 23 -24 49 0 5 -7 11 -14
14 -8 2 -11 -4 -9 -17z m66 -65 c9 -10 8 -15 -2 -19 -8 -3 -13 3 -13 14 0 23
0 23 15 5z"/>
<path d="M2035 839 c-4 -6 -4 -13 -1 -16 3 -4 6 -1 6 7 0 10 4 10 18 -1 15
-13 16 -12 3 4 -16 20 -18 20 -26 6z"/>
<path d="M1131 807 c-8 -10 -7 -14 2 -14 8 0 14 6 14 14 0 7 -1 13 -2 13 -2 0
-8 -6 -14 -13z"/>
<path d="M2096 781 c-3 -5 2 -15 12 -22 15 -12 16 -12 5 2 -7 9 -10 19 -6 22
3 4 4 7 0 7 -3 0 -8 -4 -11 -9z"/>
<path d="M1156 738 c3 -5 10 -6 15 -3 13 9 11 12 -6 12 -8 0 -12 -4 -9 -9z"/>
<path d="M1135 671 c-3 -5 -2 -12 3 -15 5 -3 9 1 9 9 0 17 -3 19 -12 6z"/>
<path d="M1213 649 c-2 -23 3 -25 10 -4 4 8 3 16 -1 19 -4 3 -9 -4 -9 -15z"/>
<path d="M1166 642 c-3 -5 1 -9 9 -9 8 0 12 4 9 9 -3 4 -7 8 -9 8 -2 0 -6 -4
-9 -8z"/>
<path d="M6 602 c-3 -5 1 -9 9 -9 8 0 15 4 15 9 0 4 -4 8 -9 8 -6 0 -12 -4
-15 -8z"/>
<path d="M1207 599 c7 -7 15 -10 18 -7 3 3 -2 9 -12 12 -14 6 -15 5 -6 -5z"/>
<path d="M1150 597 c0 -2 6 -10 14 -16 11 -9 16 -9 22 1 4 7 4 10 -1 6 -4 -4
-14 -3 -22 3 -7 6 -13 9 -13 6z"/>
<path d="M1133 567 c0 -8 6 -14 14 -14 9 0 10 4 2 14 -6 7 -12 13 -14 13 -1 0
-2 -6 -2 -13z"/>
<path d="M1197 573 c-4 -3 -7 -11 -7 -17 0 -6 5 -5 12 2 6 6 9 14 7 17 -3 3
-9 2 -12 -2z"/>
<path d="M2153 565 c0 -8 4 -12 9 -9 5 3 6 10 3 15 -9 13 -12 11 -12 -6z"/>
<path d="M1050 560 c0 -5 5 -10 10 -10 6 0 10 5 10 10 0 6 -4 10 -10 10 -5 0
-10 -4 -10 -10z"/>
<path d="M2118 552 c8 -5 13 -12 13 -16 -3 -20 0 -26 10 -20 8 5 8 9 -1 14 -6
4 -11 11 -10 16 1 5 -4 10 -12 12 -11 3 -11 2 0 -6z"/>
<path d="M1090 539 c0 -5 5 -7 10 -4 6 3 10 8 10 11 0 2 -4 4 -10 4 -5 0 -10
-5 -10 -11z"/>
<path d="M70 516 c7 -7 13 -7 20 0 6 6 3 10 -10 10 -13 0 -16 -4 -10 -10z"/>
<path d="M2150 501 c0 -7 -5 -9 -12 -5 -7 4 -8 3 -4 -5 4 -6 3 -18 -3 -25 -9
-10 -8 -15 3 -19 10 -4 15 4 19 26 2 18 3 34 1 36 -2 2 -4 -1 -4 -8z"/>
<path d="M650 484 c-7 -7 -9 -14 -5 -14 5 0 0 -10 -11 -22 -19 -23 -19 -23 2
-6 16 14 23 15 34 5 12 -10 12 -9 2 4 -10 14 -10 18 3 22 8 4 14 1 12 -5 -1
-7 8 -13 21 -14 32 -2 27 10 -12 29 -30 14 -36 14 -46 1z"/>
<path d="M1164 479 c-4 -7 -3 -9 4 -5 5 3 13 0 15 -6 4 -9 6 -10 6 -1 1 17
-16 25 -25 12z"/>
<path d="M385 460 c-3 -5 2 -10 12 -10 14 0 15 -2 4 -9 -9 -6 -4 -8 18 -7 17
0 31 5 31 9 0 5 -7 6 -15 3 -9 -3 -18 1 -21 9 -7 17 -20 19 -29 5z"/>
<path d="M588 463 c7 -3 16 -2 19 1 4 3 -2 6 -13 5 -11 0 -14 -3 -6 -6z"/>
<path d="M170 456 c0 -2 8 -10 18 -17 15 -13 16 -12 3 4 -13 16 -21 21 -21 13z"/>
<path d="M866 425 c-26 -34 -29 -35 -42 -18 -7 10 -14 14 -14 9 0 -5 -8 -2
-17 5 -14 12 -15 12 -9 0 6 -10 4 -12 -10 -7 -13 3 -25 -3 -35 -17 -15 -20
-15 -25 -3 -42 8 -10 14 -14 14 -9 0 6 -5 15 -11 21 -8 8 -8 13 0 17 6 4 11 2
11 -4 0 -6 5 -8 12 -4 7 5 9 2 5 -9 -3 -8 1 -21 9 -27 10 -9 14 -9 14 -1 0 6
-5 11 -11 11 -8 0 -8 4 1 15 6 8 8 19 4 26 -4 7 -2 10 7 7 8 -3 13 -17 12 -34
-1 -16 1 -22 4 -14 7 17 33 39 47 40 6 0 5 -5 -2 -12 -16 -16 -15 -25 4 -32
14 -5 15 -4 5 7 -9 11 -7 17 6 28 15 12 16 12 10 -6 -7 -20 -7 -20 8 -1 8 11
15 24 15 29 0 4 4 6 9 3 4 -3 17 1 27 9 12 9 14 14 6 15 -7 0 -10 5 -7 10 4 6
11 7 17 4 7 -4 8 -2 4 5 -10 16 -38 -6 -30 -23 3 -6 -3 0 -13 12 l-19 24 -28
-37z m45 -2 c8 -10 9 -14 2 -10 -7 4 -16 0 -22 -10 -8 -14 -10 -15 -11 -3 0
13 -1 13 -10 0 -5 -8 -10 -11 -10 -6 0 8 29 46 35 46 2 0 9 -8 16 -17z m-138
-27 c4 -10 1 -13 -8 -9 -8 3 -12 9 -9 14 7 12 11 11 17 -5z m51 -2 c3 -8 2
-12 -4 -9 -6 3 -10 10 -10 16 0 14 7 11 14 -7z"/>
<path d="M2165 450 c-3 -5 -4 -14 0 -19 3 -5 1 -13 -5 -16 -8 -5 -7 -11 1 -21
9 -11 8 -14 -2 -14 -8 0 -5 -6 7 -15 10 -9 13 -14 5 -13 -7 2 -16 -3 -18 -10
-3 -7 -1 -12 4 -11 27 5 35 -1 23 -16 -11 -13 -9 -15 8 -12 33 5 36 14 11 28
-20 10 -21 13 -6 23 14 11 13 14 -8 30 -14 10 -22 23 -19 28 4 6 9 6 14 -2 5
-8 9 -7 13 5 4 9 3 13 -2 10 -5 -3 -13 0 -17 6 -3 6 0 15 7 20 9 6 10 9 2 9
-6 0 -15 -4 -18 -10z"/>
<path d="M677 419 c7 -7 15 -10 18 -7 3 3 -2 9 -12 12 -14 6 -15 5 -6 -5z"/>
<path d="M296 404 c-8 -20 23 -25 33 -6 7 14 5 18 -10 18 -10 0 -21 -6 -23
-12z"/>
<path d="M410 411 c0 -6 4 -13 10 -16 6 -3 7 1 4 9 -7 18 -14 21 -14 7z"/>
<path d="M660 406 c0 -2 8 -10 18 -17 15 -13 16 -12 3 4 -13 16 -21 21 -21 13z"/>
<path d="M940 400 c-9 -6 -10 -10 -3 -10 6 0 15 5 18 10 8 12 4 12 -15 0z"/>
<path d="M970 400 c0 -5 5 -10 11 -10 5 0 7 5 4 10 -3 6 -8 10 -11 10 -2 0 -4
-4 -4 -10z"/>
<path d="M2205 399 c-4 -6 -5 -12 -2 -15 2 -3 7 2 10 11 7 17 1 20 -8 4z"/>
<path d="M374 382 c3 -5 0 -13 -6 -15 -9 -4 -10 -6 -1 -6 17 -1 25 16 12 25
-7 4 -9 3 -5 -4z"/>
<path d="M914 382 c3 -5 0 -13 -6 -15 -9 -4 -10 -6 -1 -6 17 -1 25 16 12 25
-7 4 -9 3 -5 -4z"/>
<path d="M2225 380 c-3 -6 1 -7 9 -4 18 7 21 14 7 14 -6 0 -13 -4 -16 -10z"/>
<path d="M935 361 c-3 -5 -2 -12 3 -15 5 -3 9 1 9 9 0 17 -3 19 -12 6z"/>
<path d="M335 350 c-8 -13 9 -20 24 -11 10 6 9 10 -3 14 -8 3 -18 2 -21 -3z"/>
<path d="M96 333 c-6 -14 -5 -15 5 -6 7 7 10 15 7 18 -3 3 -9 -2 -12 -12z"/>
<path d="M410 346 c0 -2 7 -7 16 -10 8 -3 12 -2 9 4 -6 10 -25 14 -25 6z"/>
<path d="M654 339 c-4 -7 -3 -9 4 -5 6 3 15 -2 21 -11 6 -10 11 -13 11 -7 0
20 -27 37 -36 23z"/>
<path d="M710 340 c-9 -6 -10 -10 -3 -10 6 0 15 5 18 10 8 12 4 12 -15 0z"/>
<path d="M310 330 c0 -6 -4 -9 -8 -6 -5 3 -9 -1 -9 -9 0 -10 4 -12 12 -5 7 5
15 7 18 3 4 -3 7 -1 7 5 0 6 -4 14 -10 17 -5 3 -10 1 -10 -5z"/>
<path d="M384 328 c3 -15 26 -23 26 -8 0 6 -4 9 -9 6 -5 -4 -12 -1 -14 4 -3 6
-4 5 -3 -2z"/>
<path d="M720 309 c-7 -11 -10 -23 -7 -25 2 -2 9 7 15 21 14 30 7 33 -8 4z"/>
<path d="M760 310 c6 -11 12 -20 14 -20 2 0 2 9 -1 20 -3 11 -9 20 -15 20 -5
0 -4 -9 2 -20z"/>
<path d="M860 325 c0 -2 6 -8 13 -14 10 -8 14 -7 14 2 0 8 -6 14 -14 14 -7 0
-13 -1 -13 -2z"/>
<path d="M2285 320 c-3 -5 -1 -10 4 -10 6 0 11 5 11 10 0 6 -2 10 -4 10 -3 0
-8 -4 -11 -10z"/>
<path d="M376 298 c5 -7 2 -9 -9 -5 -11 4 -14 2 -10 -9 4 -11 9 -12 19 -3 12
10 11 29 -2 29 -3 0 -2 -5 2 -12z"/>
<path d="M437 297 c4 -6 -1 -8 -11 -4 -9 4 -15 3 -11 -2 3 -5 -1 -12 -7 -14
-10 -4 -10 -6 0 -6 8 -1 10 -6 6 -13 -4 -7 -4 -10 0 -6 4 3 7 9 6 13 0 3 9 14
21 24 17 14 19 18 6 18 -9 0 -13 -5 -10 -10z"/>
<path d="M655 300 c-3 -5 -1 -10 4 -10 6 0 11 5 11 10 0 6 -2 10 -4 10 -3 0
-8 -4 -11 -10z"/>
<path d="M800 300 c-9 -6 -10 -10 -3 -10 6 0 15 5 18 10 8 12 4 12 -15 0z"/>
<path d="M1350 301 c0 -6 4 -13 10 -16 6 -3 7 1 4 9 -7 18 -14 21 -14 7z"/>
<path d="M10 290 c-11 -7 -11 -10 -2 -10 7 0 11 -4 7 -9 -8 -14 35 -35 47 -23
6 6 5 12 -3 17 -8 5 -10 4 -5 -3 8 -13 -3 -16 -20 -4 -6 4 -10 15 -8 25 3 20
3 20 -16 7z"/>
<path d="M75 281 c-3 -5 -2 -12 3 -15 5 -3 9 1 9 9 0 17 -3 19 -12 6z"/>
<path d="M330 281 c0 -6 4 -13 10 -16 6 -3 7 1 4 9 -7 18 -14 21 -14 7z"/>
<path d="M730 280 c0 -5 5 -10 10 -10 6 0 10 5 10 10 0 6 -4 10 -10 10 -5 0
-10 -4 -10 -10z"/>
<path d="M1073 270 c-1 -11 2 -18 8 -15 11 7 12 35 1 35 -4 0 -8 -9 -9 -20z"/>
<path d="M1395 280 c-3 -5 -1 -10 4 -10 6 0 11 5 11 10 0 6 -2 10 -4 10 -3 0
-8 -4 -11 -10z"/>
<path d="M1675 280 c-3 -5 -1 -10 4 -10 6 0 11 5 11 10 0 6 -2 10 -4 10 -3 0
-8 -4 -11 -10z"/>
<path d="M1980 282 c0 -5 7 -9 15 -9 8 0 12 4 9 9 -3 4 -9 8 -15 8 -5 0 -9 -4
-9 -8z"/>
<path d="M480 260 c-9 -6 -10 -10 -3 -10 6 0 15 5 18 10 8 12 4 12 -15 0z"/>
<path d="M594 248 c-19 -23 -19 -23 2 -5 11 9 24 14 29 10 4 -5 5 -2 1 5 -9
16 -10 16 -32 -10z"/>
<path d="M1334 258 c-4 -5 -3 -12 0 -15 3 -4 6 -1 6 5 0 6 7 9 15 6 8 -4 15
-2 15 3 0 12 -29 13 -36 1z"/>
<path d="M2030 260 c0 -5 5 -10 11 -10 5 0 7 5 4 10 -3 6 -8 10 -11 10 -2 0
-4 -4 -4 -10z"/>
<path d="M1052 240 c0 -14 2 -19 5 -12 2 6 2 18 0 25 -3 6 -5 1 -5 -13z"/>
<path d="M2068 252 c8 -5 13 -13 12 -18 -1 -5 4 -10 12 -12 11 -3 11 -2 0 6
-8 5 -13 13 -12 18 1 5 -4 10 -12 12 -11 3 -11 2 0 -6z"/>
<path d="M2144 244 c2 -10 8 -20 14 -22 17 -5 15 13 -2 27 -12 10 -14 9 -12
-5z"/>
<path d="M427 231 c-3 -13 -1 -18 9 -14 7 2 10 11 7 19 -7 19 -10 18 -16 -5z"/>
<path d="M664 242 c4 -3 14 -7 22 -8 9 -1 13 0 10 4 -4 3 -14 7 -22 8 -9 1
-13 0 -10 -4z"/>
<path d="M760 240 c-9 -6 -10 -10 -3 -10 6 0 15 5 18 10 8 12 4 12 -15 0z"/>
<path d="M70 220 c0 -5 5 -10 10 -10 6 0 10 5 10 10 0 6 -4 10 -10 10 -5 0
-10 -4 -10 -10z"/>
<path d="M1284 202 c4 -3 14 -7 22 -8 9 -1 13 0 10 4 -4 3 -14 7 -22 8 -9 1
-13 0 -10 -4z"/>
<path d="M2204 202 c4 -7 2 -12 -3 -12 -6 0 -11 -4 -11 -10 0 -15 17 -12 23 5
4 8 1 17 -5 21 -7 4 -8 3 -4 -4z"/>
<path d="M10 179 c0 -5 5 -7 10 -4 6 3 10 8 10 11 0 2 -4 4 -10 4 -5 0 -10 -5
-10 -11z"/>
<path d="M1115 180 c3 -5 8 -10 11 -10 2 0 4 5 4 10 0 6 -5 10 -11 10 -5 0 -7
-4 -4 -10z"/>
<path d="M1260 180 c-9 -6 -10 -10 -3 -10 6 0 15 5 18 10 8 12 4 12 -15 0z"/>
<path d="M2234 182 c3 -5 0 -13 -6 -15 -9 -4 -10 -6 -1 -6 17 -1 25 16 12 25
-7 4 -9 3 -5 -4z"/>
</g>
</svg>
